<?xml version="1.0" encoding="utf-8"?>
<!-- Generator: Adobe Illustrator 19.0.0, SVG Export Plug-In . SVG Version: 6.00 Build 0)  -->
<svg version="1.1" id="Capa_1" xmlns="http://www.w3.org/2000/svg" xmlns:xlink="http://www.w3.org/1999/xlink" x="0px" y="0px"
	 viewBox="0 0 90 90" style="enable-background:new 0 0 90 90;" xml:space="preserve">
<style type="text/css">
	.st0{fill:#50D350;}
</style>
<g id="XMLID_1431_">
	<g>
		<g id="XMLID_412_">
			<g id="XMLID_413_">
				<path id="XMLID_414_" class="st0" d="M72.8,86.4l-4.3-12.6c-0.2-0.7-0.9-1.2-1.6-1.2h-0.2V47.9c0-11.9-9.7-21.7-21.7-21.7
					S23.3,36,23.3,47.9v24.7h-0.2c-0.7,0-1.4,0.5-1.6,1.2l-4.3,12.6c-0.2,0.5-0.1,1.1,0.2,1.5c0.3,0.4,0.8,0.7,1.4,0.7h52.4
					c0.5,0,1.1-0.3,1.4-0.7C72.9,87.5,73,86.9,72.8,86.4z M26.8,47.9c0-10.1,8.2-18.2,18.2-18.2s18.2,8.2,18.2,18.2v24.7H26.8V47.9z
					 M21.2,85.2l3.1-9.2h41.4l3.1,9.2H21.2L21.2,85.2z"/>
			</g>
		</g>
		<g id="XMLID_409_">
			<g id="XMLID_410_">
				<path id="XMLID_411_" class="st0" d="M45,1.3c-0.9,0-1.7,0.8-1.7,1.7v10.2c0,0.9,0.8,1.7,1.7,1.7c0.9,0,1.7-0.8,1.7-1.7V3.1
					C46.7,2.1,45.9,1.3,45,1.3z"/>
			</g>
		</g>
		<g id="XMLID_406_">
			<g id="XMLID_407_">
				<path id="XMLID_408_" class="st0" d="M46.2,18.7c-0.3-0.3-0.8-0.5-1.2-0.5s-0.9,0.2-1.2,0.5c-0.3,0.3-0.5,0.8-0.5,1.2
					c0,0.4,0.2,0.9,0.5,1.2c0.3,0.3,0.8,0.5,1.2,0.5s0.9-0.2,1.2-0.5c0.3-0.3,0.5-0.8,0.5-1.2C46.7,19.5,46.5,19,46.2,18.7z"/>
			</g>
		</g>
		<g id="XMLID_403_">
			<g id="XMLID_404_">
				<path id="XMLID_405_" class="st0" d="M17.6,47H9.8c-0.9,0-1.7,0.8-1.7,1.7c0,0.9,0.8,1.7,1.7,1.7h7.8c0.9,0,1.7-0.8,1.7-1.7
					C19.3,47.8,18.6,47,17.6,47z"/>
			</g>
		</g>
		<g id="XMLID_400_">
			<g id="XMLID_401_">
				<path id="XMLID_402_" class="st0" d="M4.3,47.5C3.9,47.2,3.5,47,3.1,47s-0.9,0.2-1.2,0.5s-0.5,0.8-0.5,1.2
					c0,0.4,0.2,0.9,0.5,1.2c0.3,0.3,0.8,0.5,1.2,0.5s0.9-0.2,1.2-0.5c0.3-0.3,0.5-0.8,0.5-1.2C4.8,48.2,4.6,47.8,4.3,47.5z"/>
			</g>
		</g>
		<g id="XMLID_397_">
			<g id="XMLID_398_">
				<path id="XMLID_399_" class="st0" d="M33.5,16.5l-2.3-5.6c-0.4-0.9-1.4-1.3-2.2-0.9c-0.9,0.4-1.3,1.4-0.9,2.2l2.3,5.6
					c0.3,0.7,0.9,1.1,1.6,1.1c0.2,0,0.4,0,0.7-0.1C33.5,18.4,33.9,17.4,33.5,16.5z"/>
			</g>
		</g>
		<g id="XMLID_394_">
			<g id="XMLID_395_">
				<path id="XMLID_396_" class="st0" d="M14.1,34.1l-5.6-2.3c-0.9-0.4-1.9,0.1-2.2,0.9c-0.4,0.9,0.1,1.9,0.9,2.2l5.6,2.3
					c0.2,0.1,0.4,0.1,0.7,0.1c0.7,0,1.3-0.4,1.6-1.1C15.4,35.4,15,34.4,14.1,34.1z"/>
			</g>
		</g>
		<g id="XMLID_391_">
			<g id="XMLID_392_">
				<path id="XMLID_393_" class="st0" d="M80.9,47h-7.8c-0.9,0-1.7,0.8-1.7,1.7c0,0.9,0.8,1.7,1.7,1.7h7.8c0.9,0,1.7-0.8,1.7-1.7
					C82.6,47.8,81.8,47,80.9,47z"/>
			</g>
		</g>
		<g id="XMLID_388_">
			<g id="XMLID_389_">
				<path id="XMLID_390_" class="st0" d="M88.2,47.5c-0.3-0.3-0.8-0.5-1.2-0.5s-0.9,0.2-1.2,0.5c-0.3,0.3-0.5,0.8-0.5,1.2
					c0,0.4,0.2,0.9,0.5,1.2c0.3,0.3,0.8,0.5,1.2,0.5s0.9-0.2,1.2-0.5c0.3-0.3,0.5-0.8,0.5-1.2C88.7,48.2,88.5,47.8,88.2,47.5z"/>
			</g>
		</g>
		<g id="XMLID_385_">
			<g id="XMLID_386_">
				<path id="XMLID_387_" class="st0" d="M78.7,15c-0.7-0.7-1.7-0.7-2.4,0l-8.4,8.4c-0.7,0.7-0.7,1.7,0,2.4c0.3,0.3,0.8,0.5,1.2,0.5
					c0.4,0,0.9-0.2,1.2-0.5l8.4-8.4C79.4,16.7,79.4,15.6,78.7,15z"/>
			</g>
		</g>
		<g id="XMLID_382_">
			<g id="XMLID_383_">
				<path id="XMLID_384_" class="st0" d="M22.1,23.4L13.7,15c-0.7-0.7-1.7-0.7-2.4,0c-0.7,0.7-0.7,1.7,0,2.4l8.4,8.4
					c0.3,0.3,0.8,0.5,1.2,0.5c0.4,0,0.9-0.2,1.2-0.5C22.7,25.1,22.7,24,22.1,23.4z"/>
			</g>
		</g>
		<g id="XMLID_379_">
			<g id="XMLID_380_">
				<path id="XMLID_381_" class="st0" d="M61,10c-0.9-0.4-1.9,0.1-2.2,0.9l-2.3,5.6c-0.4,0.9,0.1,1.9,0.9,2.2
					c0.2,0.1,0.4,0.1,0.7,0.1c0.7,0,1.3-0.4,1.6-1.1l2.3-5.6C62.3,11.4,61.9,10.4,61,10z"/>
			</g>
		</g>
		<g id="XMLID_376_">
			<g id="XMLID_377_">
				<path id="XMLID_378_" class="st0" d="M83.7,32.7c-0.4-0.9-1.4-1.3-2.2-0.9l-5.6,2.3c-0.9,0.4-1.3,1.4-0.9,2.2
					c0.3,0.7,0.9,1.1,1.6,1.1c0.2,0,0.4,0,0.7-0.1l5.6-2.3C83.6,34.5,84,33.5,83.7,32.7z"/>
			</g>
		</g>
		<g id="XMLID_371_">
			<g id="XMLID_372_">
				<path id="XMLID_373_" class="st0" d="M45,37c-2.8,0-5.1,2.3-5.1,5.1v8.2c0,2.8,2.3,5.1,5.1,5.1s5.1-2.3,5.1-5.1v-8.2
					C50.1,39.3,47.8,37,45,37z M46.7,50.3c0,0.9-0.8,1.7-1.7,1.7s-1.7-0.8-1.7-1.7v-8.2c0-0.9,0.8-1.7,1.7-1.7s1.7,0.8,1.7,1.7V50.3
					z"/>
			</g>
		</g>
		<g id="XMLID_366_">
			<g id="XMLID_367_">
				<path id="XMLID_368_" class="st0" d="M45,58.8c-2.8,0-5.1,2.3-5.1,5.1c0,2.8,2.3,5.1,5.1,5.1s5.1-2.3,5.1-5.1
					C50.1,61.1,47.8,58.8,45,58.8z M45,65.6c-0.9,0-1.7-0.8-1.7-1.7c0-0.9,0.8-1.7,1.7-1.7s1.7,0.8,1.7,1.7
					C46.7,64.9,45.9,65.6,45,65.6z"/>
			</g>
		</g>
	</g>
</g>
</svg>
