<?xml version="1.0" encoding="utf-8"?>
<!-- Generator: Adobe Illustrator 19.0.0, SVG Export Plug-In . SVG Version: 6.00 Build 0)  -->
<svg version="1.1" id="Capa_1" xmlns="http://www.w3.org/2000/svg" xmlns:xlink="http://www.w3.org/1999/xlink" x="0px" y="0px"
	 viewBox="0 0 80 80" style="enable-background:new 0 0 80 80;" xml:space="preserve">
<style type="text/css">
	.st0{fill:url(#XMLID_2_);stroke:#3B97D3;stroke-width:1.102;stroke-miterlimit:10;}
	.st1{fill:url(#XMLID_3_);stroke:#3B97D3;stroke-width:1.102;stroke-miterlimit:10;}
	.st2{fill:url(#XMLID_4_);stroke:#3B97D3;stroke-width:1.102;stroke-miterlimit:10;}
	.st3{fill:url(#XMLID_5_);stroke:#3B97D3;stroke-width:1.102;stroke-miterlimit:10;}
	.st4{fill:url(#XMLID_6_);stroke:#3B97D3;stroke-width:1.102;stroke-miterlimit:10;}
	.st5{fill:url(#XMLID_7_);stroke:#3B97D3;stroke-width:1.102;stroke-miterlimit:10;}
	.st6{fill:url(#XMLID_8_);stroke:#3B97D3;stroke-width:1.102;stroke-miterlimit:10;}
</style>
<g id="XMLID_879_">
	<g id="XMLID_1821_">
		<g id="XMLID_1822_">
			<linearGradient id="XMLID_2_" gradientUnits="userSpaceOnUse" x1="21.2021" y1="31.5708" x2="58.7655" y2="31.5708">
				<stop  offset="0" style="stop-color:#3B97D3"/>
				<stop  offset="1" style="stop-color:#68B651"/>
			</linearGradient>
			<path id="XMLID_1823_" class="st0" d="M40,7.3c-10.4,0-18.8,8.4-18.8,18.8c0,4.3,1.5,8.5,4.2,11.8c0,0,0,0.1,0.1,0.1L39,55.3
				c0.2,0.3,0.6,0.5,1,0.5s0.8-0.2,1-0.5l13.6-17.4c0,0,0,0,0,0c2.7-3.3,4.2-7.5,4.2-11.8C58.8,15.7,50.3,7.3,40,7.3z M52.6,36.3
				C52.6,36.4,52.5,36.4,52.6,36.3L40,52.5L27.6,36.6c0-0.1-0.1-0.1-0.1-0.1c-2.4-2.9-3.7-6.6-3.7-10.3C23.8,17.1,31,9.9,40,9.9
				s16.2,7.3,16.2,16.2C56.2,29.8,54.9,33.5,52.6,36.3z"/>
		</g>
	</g>
	<g id="XMLID_1818_">
		<g id="XMLID_1819_">
			<linearGradient id="XMLID_3_" gradientUnits="userSpaceOnUse" x1="28.4945" y1="26.3756" x2="51.4745" y2="26.3756">
				<stop  offset="0" style="stop-color:#3B97D3"/>
				<stop  offset="1" style="stop-color:#68B651"/>
			</linearGradient>
			<path id="XMLID_886_" class="st1" d="M51,23.1c-0.2-0.7-0.9-1.1-1.6-0.9c-0.7,0.2-1.1,0.9-0.9,1.6c0.9,3.1,0.1,6.5-2.3,8.9
				c-1.7,1.7-3.9,2.6-6.3,2.6s-4.6-0.9-6.3-2.6C32,31,31,28.8,31,26.4s0.9-4.6,2.6-6.3c2.3-2.3,5.7-3.2,8.9-2.2
				c0.7,0.2,1.4-0.2,1.6-0.9c0.2-0.7-0.2-1.4-0.9-1.6c-4-1.2-8.4-0.1-11.4,2.9c-2.2,2.2-3.4,5.1-3.4,8.1s1.2,6,3.4,8.1
				s5.1,3.4,8.1,3.4s6-1.2,8.1-3.4C51.1,31.5,52.2,27.2,51,23.1z"/>
		</g>
	</g>
	<g id="XMLID_1815_">
		<g id="XMLID_1816_">
			<linearGradient id="XMLID_4_" gradientUnits="userSpaceOnUse" x1="45.9289" y1="19.1657" x2="48.5047" y2="19.1657">
				<stop  offset="0" style="stop-color:#3B97D3"/>
				<stop  offset="1" style="stop-color:#68B651"/>
			</linearGradient>
			<path id="XMLID_885_" class="st2" d="M48.1,18.3L48.1,18.3c-0.5-0.5-1.3-0.5-1.8,0c-0.5,0.5-0.5,1.3,0,1.8l0,0
				c0.2,0.2,0.6,0.4,0.9,0.4c0.3,0,0.7-0.1,0.9-0.4C48.6,19.6,48.6,18.8,48.1,18.3z"/>
		</g>
	</g>
	<g id="XMLID_1807_">
		<g id="XMLID_1808_">
			<linearGradient id="XMLID_5_" gradientUnits="userSpaceOnUse" x1="7.3186" y1="58.2696" x2="72.6814" y2="58.2696">
				<stop  offset="0" style="stop-color:#3B97D3"/>
				<stop  offset="1" style="stop-color:#68B651"/>
			</linearGradient>
			<path id="XMLID_884_" class="st3" d="M59.6,46.3c-0.7-0.2-1.4,0.1-1.6,0.8c-0.2,0.7,0.1,1.4,0.8,1.6c7.1,2.3,11.3,5.8,11.3,9.3
				c0,3-3.1,6-8.4,8.3c-5.8,2.5-13.5,3.8-21.7,3.8s-15.9-1.4-21.7-3.8c-5.4-2.3-8.4-5.3-8.4-8.3c0-2.5,2.1-5,6.1-7.1
				c4.1-2.2,10-3.8,16.4-4.5c0.7-0.1,1.2-0.7,1.1-1.4c-0.1-0.7-0.7-1.2-1.4-1.1c-6.8,0.7-13,2.4-17.4,4.8c-4.8,2.6-7.4,5.9-7.4,9.4
				c0,4.1,3.5,7.9,10,10.6c6.1,2.6,14.1,4,22.7,4s16.6-1.4,22.7-4c6.4-2.7,10-6.5,10-10.6C72.7,53.3,67.9,49,59.6,46.3z"/>
		</g>
	</g>
	<g id="XMLID_1804_">
		<g id="XMLID_1805_">
			<linearGradient id="XMLID_6_" gradientUnits="userSpaceOnUse" x1="52.1971" y1="46.0115" x2="54.7953" y2="46.0115">
				<stop  offset="0" style="stop-color:#3B97D3"/>
				<stop  offset="1" style="stop-color:#68B651"/>
			</linearGradient>
			<path id="XMLID_883_" class="st4" d="M53.8,44.8L53.8,44.8c-0.7-0.1-1.4,0.3-1.5,1c-0.1,0.7,0.3,1.4,1,1.5l0,0c0.1,0,0.2,0,0.3,0
				c0.6,0,1.1-0.4,1.3-1C54.9,45.6,54.5,44.9,53.8,44.8z"/>
		</g>
	</g>
	<g id="XMLID_1801_">
		<g id="XMLID_1802_">
			<linearGradient id="XMLID_7_" gradientUnits="userSpaceOnUse" x1="27.817" y1="50.5951" x2="30.3728" y2="50.5951">
				<stop  offset="0" style="stop-color:#3B97D3"/>
				<stop  offset="1" style="stop-color:#68B651"/>
			</linearGradient>
			<path id="XMLID_882_" class="st5" d="M30.3,50.3c-0.1-0.7-0.8-1.1-1.5-1c0,0-0.1,0-0.1,0c-0.7,0.2-1.1,0.9-0.9,1.6
				c0.2,0.6,0.7,0.9,1.2,0.9c0.1,0,0.2,0,0.3,0C30.1,51.7,30.5,51,30.3,50.3z"/>
		</g>
	</g>
	<g id="XMLID_1798_">
		<g id="XMLID_1799_">
			<linearGradient id="XMLID_8_" gradientUnits="userSpaceOnUse" x1="20.6117" y1="55.4914" x2="59.3884" y2="55.4914">
				<stop  offset="0" style="stop-color:#3B97D3"/>
				<stop  offset="1" style="stop-color:#68B651"/>
			</linearGradient>
			<path id="XMLID_880_" class="st6" d="M44.3,48.3c-0.7-0.1-1.3,0.5-1.4,1.2c-0.1,0.7,0.5,1.3,1.2,1.4c8.3,0.7,12.8,3.1,12.8,4.6
				c0,0.7-1.2,2-4.4,3.1c-3.3,1.1-7.7,1.7-12.4,1.7s-9.1-0.6-12.4-1.7c-3.3-1.1-4.4-2.3-4.4-3.1c0-0.7,0.9-1.5,2.4-2.2
				c0.6-0.3,0.9-1.1,0.6-1.7c-0.3-0.6-1.1-0.9-1.7-0.6c-3.2,1.6-3.8,3.3-3.8,4.5c0,4.8,9.8,7.3,19.4,7.3s19.4-2.5,19.4-7.3
				C59.4,51,51.2,48.8,44.3,48.3z"/>
		</g>
	</g>
</g>
</svg>
