<?xml version="1.0" encoding="utf-8"?>
<!-- Generator: Adobe Illustrator 19.0.0, SVG Export Plug-In . SVG Version: 6.00 Build 0)  -->
<svg version="1.1" id="Capa_1" xmlns="http://www.w3.org/2000/svg" xmlns:xlink="http://www.w3.org/1999/xlink" x="0px" y="0px"
	 viewBox="-49 104 512 512" style="enable-background:new -49 104 512 512;" xml:space="preserve">
<style type="text/css">
	.st0{fill:#FFFFFF;}
</style>
<g>
	<g id="XMLID_1821_">
		<g id="XMLID_1822_">
			<path id="XMLID_1823_" class="st0" d="M206.9,117c-76.4,0-138.5,62.1-138.5,138.5c0,31.8,11,62.7,31,87.3
				c0.1,0.2,0.3,0.4,0.4,0.7l99.6,127.6c1.8,2.3,4.6,3.7,7.4,3.7c2.9,0,5.7-1.3,7.4-3.7l100.1-128.3l0.1-0.1
				c19.9-24.5,30.9-55.5,30.9-87.2C345.4,179.1,283.3,117,206.9,117z M299.7,331c-0.1,0.1-0.2,0.3-0.3,0.4L206.9,450l-91.5-117.3
				c-0.2-0.3-0.4-0.8-0.8-1.1c-17.7-21.3-27.3-48.4-27.3-76.2c0-66,53.6-119.7,119.7-119.7s119.7,53.6,119.7,119.7
				C326.5,282.9,317.1,309.8,299.7,331z"/>
		</g>
	</g>
	<g id="XMLID_1818_">
		<g id="XMLID_1819_">
			<path id="XMLID_886_" class="st0" d="M288.2,233.5c-1.4-5-6.7-7.9-11.7-6.3c-5,1.4-7.9,6.7-6.3,11.7c6.9,23.2,0.4,48.2-16.7,65.3
				c-12.4,12.4-29,19.3-46.6,19.3s-34.1-6.9-46.6-19.3c-12.4-12.4-19.3-29-19.3-46.6s6.9-34.2,19.3-46.6
				c17.1-17.1,42.2-23.4,65.4-16.5c5,1.4,10.2-1.3,11.7-6.3c1.4-5-1.3-10.2-6.3-11.7c-29.9-8.9-62.1-0.7-84.1,21.3
				c-16,16-24.8,37.3-24.8,59.9c0,22.7,8.8,43.9,24.8,59.9c16,16,37.3,24.8,59.9,24.8s43.9-8.8,59.9-24.8
				C288.7,295.5,297,263.3,288.2,233.5z"/>
		</g>
	</g>
	<g id="XMLID_1815_">
		<g id="XMLID_1816_">
			<path id="XMLID_885_" class="st0" d="M267,197.7l-0.2-0.2c-3.7-3.7-9.7-3.7-13.3,0c-3.7,3.7-3.7,9.7,0,13.3l0.2,0.2
				c1.9,1.9,4.2,2.8,6.7,2.8c2.4,0,4.8-0.9,6.7-2.8C270.6,207.4,270.6,201.5,267,197.7z"/>
		</g>
	</g>
	<g id="XMLID_1807_">
		<g id="XMLID_1808_">
			<path id="XMLID_884_" class="st0" d="M351.6,404.4c-4.9-1.7-10.2,1.1-11.9,6s1.1,10.2,6,11.9c52.2,17.2,83.4,43,83.4,68.9
				c0,22-22.7,44.2-62.1,61c-42.6,18.1-99.4,28.1-160,28.1s-117.5-10-160-28.1c-39.5-16.8-62.1-39-62.1-61
				c0-18.3,15.9-37.1,44.6-52.5c30.4-16.4,73.5-28.3,121.3-33.4c5.2-0.6,8.9-5.2,8.3-10.3c-0.6-5.2-5.2-8.9-10.3-8.3
				c-50.2,5.4-95.7,18.1-128.2,35.5C-15.1,441.3-34,465.2-34,491.2c0,30.3,26.1,58.1,73.5,78.3C84.4,588.6,143.9,599,207,599
				s122.6-10.6,167.5-29.5c47.4-20.1,73.5-48,73.5-78.3C448,456.2,412.9,424.5,351.6,404.4z"/>
		</g>
	</g>
	<g id="XMLID_1804_">
		<g id="XMLID_1805_">
			<path id="XMLID_883_" class="st0" d="M308.5,393.1l-0.3-0.1c-5.1-1-10.1,2.2-11.1,7.3c-1,5.1,2.2,10.1,7.3,11.1l0.3,0.1
				c0.7,0.1,1.2,0.2,1.9,0.2c4.4,0,8.3-3.1,9.2-7.6C316.9,399.1,313.6,394.2,308.5,393.1z"/>
		</g>
	</g>
	<g id="XMLID_1801_">
		<g id="XMLID_1802_">
			<path id="XMLID_882_" class="st0" d="M135.8,434.3c-1-5.1-6-8.4-11.1-7.3c-0.2,0-0.4,0.1-0.7,0.1c-5,1.3-8,6.6-6.6,11.6
				c1.1,4.2,4.9,6.9,9.1,6.9c0.8,0,1.4-0.1,2.2-0.2C133.7,444.1,136.8,439.3,135.8,434.3z"/>
		</g>
	</g>
	<g id="XMLID_1798_">
		<g id="XMLID_1799_">
			<path id="XMLID_880_" class="st0" d="M238.4,419c-5.2-0.4-9.7,3.4-10.1,8.7c-0.4,5.2,3.4,9.7,8.7,10.1
				c61.4,4.8,94.2,22.8,94.2,33.9c0,5.3-8.6,14.4-32.7,22.5c-24.3,8.1-56.8,12.5-91.5,12.5s-67.2-4.4-91.5-12.5
				c-24.1-8-32.7-17.1-32.7-22.5c0-4.9,6.7-11.1,17.8-16.5c4.7-2.3,6.6-7.9,4.3-12.5s-7.9-6.6-12.5-4.3
				c-23.4,11.4-28.3,24.5-28.3,33.4c0,35.4,72,53.9,142.9,53.9s142.9-18.5,142.9-53.9C349.9,439.2,289.9,423,238.4,419z"/>
		</g>
	</g>
</g>
</svg>
