<?xml version="1.0" encoding="utf-8"?>
<!-- Generator: Adobe Illustrator 19.0.0, SVG Export Plug-In . SVG Version: 6.00 Build 0)  -->
<svg version="1.1" id="Capa_1" xmlns="http://www.w3.org/2000/svg" xmlns:xlink="http://www.w3.org/1999/xlink" x="0px" y="0px"
	 viewBox="0 0 80 80" style="enable-background:new 0 0 80 80;" xml:space="preserve">
<style type="text/css">
	.st0{fill:url(#XMLID_2_);stroke:#3B97D3;stroke-width:1.0774;stroke-miterlimit:10;}
	.st1{fill:url(#XMLID_3_);stroke:#3B97D3;stroke-width:1.0774;stroke-miterlimit:10;}
	.st2{fill:url(#XMLID_4_);stroke:#3B97D3;stroke-width:1.0774;stroke-miterlimit:10;}
	.st3{fill:url(#XMLID_5_);stroke:#3B97D3;stroke-width:1.0774;stroke-miterlimit:10;}
	.st4{fill:url(#XMLID_6_);stroke:#3B97D3;stroke-width:1.0774;stroke-miterlimit:10;}
	.st5{fill:url(#XMLID_7_);stroke:#3B97D3;stroke-width:1.0774;stroke-miterlimit:10;}
	.st6{fill:url(#XMLID_8_);stroke:#3B97D3;stroke-width:1.0774;stroke-miterlimit:10;}
</style>
<g id="XMLID_877_">
	<linearGradient id="XMLID_2_" gradientUnits="userSpaceOnUse" x1="26.5741" y1="36.3406" x2="33.6808" y2="36.3406">
		<stop  offset="0" style="stop-color:#3B97D3"/>
		<stop  offset="1" style="stop-color:#68B651"/>
	</linearGradient>
	<path id="XMLID_1857_" class="st0" d="M32.7,42.4c0.5,0,1-0.4,1-1V31.2c0-0.5-0.4-1-1-1h-5.2c-0.5,0-1,0.4-1,1v10.3
		c0,0.5,0.4,1,1,1H32.7z M28.5,32.1h3.3v8.4h-3.3V32.1z"/>
	<linearGradient id="XMLID_3_" gradientUnits="userSpaceOnUse" x1="36.4472" y1="36.3406" x2="43.5536" y2="36.3406">
		<stop  offset="0" style="stop-color:#3B97D3"/>
		<stop  offset="1" style="stop-color:#68B651"/>
	</linearGradient>
	<path id="XMLID_1854_" class="st1" d="M37.4,42.4h5.2c0.5,0,1-0.4,1-1V31.2c0-0.5-0.4-1-1-1h-5.2c-0.5,0-1,0.4-1,1v10.3
		C36.4,42,36.9,42.4,37.4,42.4z M38.4,32.1h3.3v8.4h-3.3V32.1z"/>
	<linearGradient id="XMLID_4_" gradientUnits="userSpaceOnUse" x1="13.285" y1="51.1682" x2="20.3919" y2="51.1682">
		<stop  offset="0" style="stop-color:#3B97D3"/>
		<stop  offset="1" style="stop-color:#68B651"/>
	</linearGradient>
	<path id="XMLID_1851_" class="st2" d="M19.4,57.3c0.5,0,1-0.4,1-1V46c0-0.5-0.4-1-1-1h-5.2c-0.5,0-1,0.4-1,1v10.3c0,0.5,0.4,1,1,1
		H19.4z M15.2,47h3.3v8.4h-3.3V47z"/>
	<linearGradient id="XMLID_5_" gradientUnits="userSpaceOnUse" x1="59.6081" y1="51.1682" x2="66.7147" y2="51.1682">
		<stop  offset="0" style="stop-color:#3B97D3"/>
		<stop  offset="1" style="stop-color:#68B651"/>
	</linearGradient>
	<path id="XMLID_1848_" class="st3" d="M60.6,57.3h5.2c0.5,0,1-0.4,1-1V46c0-0.5-0.4-1-1-1h-5.2c-0.5,0-1,0.4-1,1v10.3
		C59.6,56.8,60,57.3,60.6,57.3z M61.5,47h3.3v8.4h-3.3V47z"/>
	<linearGradient id="XMLID_6_" gradientUnits="userSpaceOnUse" x1="46.3192" y1="36.3406" x2="53.4262" y2="36.3406">
		<stop  offset="0" style="stop-color:#3B97D3"/>
		<stop  offset="1" style="stop-color:#68B651"/>
	</linearGradient>
	<path id="XMLID_1845_" class="st4" d="M47.3,42.4h5.2c0.5,0,1-0.4,1-1V31.2c0-0.5-0.4-1-1-1h-5.2c-0.5,0-1,0.4-1,1v10.3
		C46.3,42,46.7,42.4,47.3,42.4z M48.2,32.1h3.3v8.4h-3.3V32.1z"/>
	<linearGradient id="XMLID_7_" gradientUnits="userSpaceOnUse" x1="36.1063" y1="14.6058" x2="43.8937" y2="14.6058">
		<stop  offset="0" style="stop-color:#3B97D3"/>
		<stop  offset="1" style="stop-color:#68B651"/>
	</linearGradient>
	<path id="XMLID_1824_" class="st5" d="M39,17.5c0,0.5,0.4,1,1,1s1-0.4,1-1v-2h2c0.5,0,1-0.4,1-1s-0.4-1-1-1h-2v-2c0-0.5-0.4-1-1-1
		s-1,0.4-1,1v2h-2c-0.5,0-1,0.4-1,1s0.4,1,1,1h2V17.5z"/>
	<linearGradient id="XMLID_8_" gradientUnits="userSpaceOnUse" x1="7.3186" y1="40" x2="72.6814" y2="40">
		<stop  offset="0" style="stop-color:#3B97D3"/>
		<stop  offset="1" style="stop-color:#68B651"/>
	</linearGradient>
	<path id="XMLID_1835_" class="st6" d="M71.7,35.2c0.5,0,1-0.4,1-1v-3.4c0-0.5-0.4-1-1-1h-5.8c-0.5,0-1,0.4-1,1s0.4,1,1,1h4.9v1.5
		c-1.6,0-13.1,0-13.8,0v-1.5h4.2c0.5,0,1-0.4,1-1s-0.4-1-1-1h-4.2v-4.5h1.5c0.5,0,1-0.4,1-1v-3.4c0-0.5-0.4-1-1-1h-8.5V8.3
		c0-0.5-0.4-1-1-1H31.1c-0.5,0-1,0.4-1,1V20h-8.5c-0.5,0-1,0.4-1,1v3.4c0,0.5,0.4,1,1,1h1.5v4.5H8.3c-0.5,0-1,0.4-1,1v3.4
		c0,0.5,0.4,1,1,1h0.4v6.3c0,0.5,0.4,1,1,1s1-0.4,1-1v-6.3h12.4v32H10.6V46.2c0-0.5-0.4-1-1-1s-1,0.4-1,1v20.9H8.3c-0.5,0-1,0.4-1,1
		v3.6c0,0.5,0.4,1,1,1h63.4c0.5,0,1-0.4,1-1v-3.6c0-0.5-0.4-1-1-1h-0.4v-32H71.7z M22.5,21.9h14.9c0.5,0,1-0.4,1-1c0-0.5-0.4-1-1-1
		H32V9.2H48V20h-5.1c-0.5,0-1,0.4-1,1c0,0.5,0.4,1,1,1h14.6v1.5H22.5V21.9z M9.2,31.7h13.8v1.5H9.2V31.7z M25,25.3h30v41.8h-5.5V52
		c0-0.5-0.4-1-1-1H31.4c-0.5,0-1,0.4-1,1v15.1H25V25.3z M32.4,67.1V53H39v14.2H32.4z M41,53h6.6v14.2H41V53z M70.8,70.8H9.2v-1.7
		h61.5V70.8z M69.4,67.1H56.9v-32h12.4L69.4,67.1L69.4,67.1z"/>
</g>
</svg>
