<?xml version="1.0" encoding="utf-8"?>
<!-- Generator: Adobe Illustrator 19.0.0, SVG Export Plug-In . SVG Version: 6.00 Build 0)  -->
<svg version="1.1" id="Capa_1" xmlns="http://www.w3.org/2000/svg" xmlns:xlink="http://www.w3.org/1999/xlink" x="0px" y="0px"
	 viewBox="-49 141 512 512" style="enable-background:new -49 141 512 512;" xml:space="preserve">
<style type="text/css">
	.st0{fill:#FFFFFF;}
</style>
<g id="XMLID_877_">
	<path id="XMLID_1857_" class="st0" d="M152.9,415.2c3.9,0,7.1-3.2,7.1-7.1v-76.6c0-3.9-3.2-7.1-7.1-7.1h-38.6
		c-3.9,0-7.1,3.2-7.1,7.1v76.6c0,3.9,3.2,7.1,7.1,7.1H152.9z M121.4,338.6h24.4V401h-24.4V338.6z"/>
	<path id="XMLID_1854_" class="st0" d="M187.7,415.2h38.6c3.9,0,7.1-3.2,7.1-7.1v-76.6c0-3.9-3.2-7.1-7.1-7.1h-38.6
		c-3.9,0-7.1,3.2-7.1,7.1v76.6C180.6,412,183.8,415.2,187.7,415.2z M194.8,338.6h24.4V401h-24.4V338.6z"/>
	<path id="XMLID_1851_" class="st0" d="M54.1,525.4c3.9,0,7.1-3.2,7.1-7.1v-76.6c0-3.9-3.2-7.1-7.1-7.1H15.5c-3.9,0-7.1,3.2-7.1,7.1
		v76.6c0,3.9,3.2,7.1,7.1,7.1H54.1z M22.6,448.9H47v62.3H22.6V448.9z"/>
	<path id="XMLID_1848_" class="st0" d="M359.9,525.4h38.6c3.9,0,7.1-3.2,7.1-7.1v-76.6c0-3.9-3.2-7.1-7.1-7.1h-38.6
		c-3.9,0-7.1,3.2-7.1,7.1v76.6C352.8,522.3,356,525.4,359.9,525.4z M367,448.9h24.4v62.3H367V448.9z"/>
	<path id="XMLID_1845_" class="st0" d="M261.1,415.2h38.6c3.9,0,7.1-3.2,7.1-7.1v-76.6c0-3.9-3.2-7.1-7.1-7.1h-38.6
		c-3.9,0-7.1,3.2-7.1,7.1v76.6C254,412,257.2,415.2,261.1,415.2z M268.2,338.6h24.4V401h-24.4V338.6z"/>
	<path id="XMLID_1824_" class="st0" d="M199.9,230c0,3.9,3.2,7.1,7.1,7.1s7.1-3.2,7.1-7.1v-14.7h14.7c3.9,0,7.1-3.2,7.1-7.1
		c0-3.9-3.2-7.1-7.1-7.1h-14.7v-14.7c0-3.9-3.2-7.1-7.1-7.1s-7.1,3.2-7.1,7.1v14.7h-14.7c-3.9,0-7.1,3.2-7.1,7.1
		c0,3.9,3.2,7.1,7.1,7.1h14.7V230z"/>
	<path id="XMLID_1835_" class="st0" d="M442.9,361.2c3.9,0,7.1-3.2,7.1-7.1v-25.6c0-3.9-3.2-7.1-7.1-7.1h-43.2
		c-3.9,0-7.1,3.2-7.1,7.1c0,3.9,3.2,7.1,7.1,7.1h36.1V347c-12,0-97.7,0-102.8,0v-11.4h31.3c3.9,0,7.1-3.2,7.1-7.1
		c0-3.9-3.2-7.1-7.1-7.1H333V288h10.9c3.9,0,7.1-3.2,7.1-7.1v-25.6c0-3.9-3.2-7.1-7.1-7.1h-63.5v-87c0-3.9-3.2-7.1-7.1-7.1H140.7
		c-3.9,0-7.1,3.2-7.1,7.1v87H70.1c-3.9,0-7.1,3.2-7.1,7.1v25.6c0,3.9,3.2,7.1,7.1,7.1H81v33.4H-28.9c-3.9,0-7.1,3.2-7.1,7.1v25.6
		c0,3.9,3.2,7.1,7.1,7.1h3.2v46.8c0,3.9,3.2,7.1,7.1,7.1s7.1-3.2,7.1-7.1v-46.8H81v237.6h-92.5V443.4c0-3.9-3.2-7.1-7.1-7.1
		s-7.1,3.2-7.1,7.1v155.4h-3.2c-3.9,0-7.1,3.2-7.1,7.1v26.9c0,3.9,3.2,7.1,7.1,7.1h471.8c3.9,0,7.1-3.2,7.1-7.1V606
		c0-3.9-3.2-7.1-7.1-7.1h-3.2V361.2H442.9z M77.2,262.4h110.6c3.9,0,7.1-3.2,7.1-7.1c0-3.9-3.2-7.1-7.1-7.1h-40v-79.9h118.3v79.9
		h-37.9c-3.9,0-7.1,3.2-7.1,7.1c0,3.9,3.2,7.1,7.1,7.1h108.6v11.4H77.2V262.4z M-21.8,335.6H81V347H-21.8V335.6z M95.3,288h223.4
		v310.9h-41V486.2c0-3.9-3.2-7.1-7.1-7.1H143.4c-3.9,0-7.1,3.2-7.1,7.1v112.6h-41V288z M150.5,598.8V493.3h49.4v105.5H150.5z
		 M214.1,493.3h49.4v105.5h-49.4V493.3z M435.8,625.8H-21.8v-12.7h457.5V625.8z M425.5,598.8H333V361.2h92.5L425.5,598.8
		L425.5,598.8z"/>
</g>
</svg>
