<?xml version="1.0" encoding="utf-8"?>
<!-- Generator: Adobe Illustrator 19.0.0, SVG Export Plug-In . SVG Version: 6.00 Build 0)  -->
<svg version="1.1" id="Capa_1" xmlns="http://www.w3.org/2000/svg" xmlns:xlink="http://www.w3.org/1999/xlink" x="0px" y="0px"
	 viewBox="-439 241 80 80" style="enable-background:new -439 241 80 80;" xml:space="preserve">
<style type="text/css">
	.st0{fill:url(#XMLID_2_);stroke:#3D97D3;stroke-width:1.1287;stroke-miterlimit:10;}
	.st1{fill:url(#XMLID_3_);stroke:#3D97D3;stroke-width:1.1287;stroke-miterlimit:10;}
</style>
<g id="XMLID_996_">
	<g id="XMLID_41_">
		<linearGradient id="XMLID_2_" gradientUnits="userSpaceOnUse" x1="-388.9131" y1="263.0418" x2="-385.8529" y2="263.0418">
			<stop  offset="0" style="stop-color:#3D97D3"/>
			<stop  offset="1" style="stop-color:#69B652"/>
		</linearGradient>
		<path id="XMLID_4218_" class="st0" d="M-388.4,264.1c0.3,0.3,0.7,0.4,1.1,0.4s0.8-0.1,1.1-0.4c0.6-0.6,0.6-1.6,0-2.1l0,0
			c-0.6-0.6-1.6-0.6-2.1,0C-389.1,262.6-389.1,263.5-388.4,264.1L-388.4,264.1z"/>
		<linearGradient id="XMLID_3_" gradientUnits="userSpaceOnUse" x1="-435.9995" y1="281.2421" x2="-358.1863" y2="281.2421">
			<stop  offset="0" style="stop-color:#3D97D3"/>
			<stop  offset="1" style="stop-color:#69B652"/>
		</linearGradient>
		<path id="XMLID_4221_" class="st1" d="M-363.9,278.5l5.3-5.3c0.4-0.4,0.6-1.1,0.3-1.7c-0.2-0.6-0.8-0.9-1.4-0.9h-11
			c-1.4-5.9-4.4-11.2-8.8-15.5c-6.3-6.3-14.6-9.7-23.4-9.7s-17.2,3.4-23.4,9.7c-6.3,6.3-9.7,14.6-9.7,23.4c0,8.8,3.4,17.2,9.7,23.4
			c1.9,1.9,3.9,3.5,6.1,4.8l-4.6,8.1c-0.3,0.5-0.3,1,0,1.5c0.3,0.5,0.8,0.8,1.3,0.8h7.8c0.5,0,1.1-0.3,1.3-0.8l3.2-5.7
			c2.6,0.7,5.4,1,8.2,1c2.8,0,5.6-0.3,8.2-1l3.2,5.7c0.3,0.5,0.8,0.8,1.3,0.8h7.8c0.5,0,1-0.3,1.3-0.8c0.3-0.5,0.3-1,0-1.5l-4.6-8.1
			c2.2-1.3,4.2-3,6.1-4.8c4.3-4.3,7.3-9.7,8.8-15.5h11c0.6,0,1.2-0.4,1.4-0.9c0.2-0.6,0.1-1.2-0.3-1.7L-363.9,278.5z M-366.7,277
			h-10.6l3.3-3.3h10.6L-366.7,277z M-416.5,314.1h-4.3l3.3-5.8c1.1,0.6,2.3,1.1,3.5,1.5L-416.5,314.1z M-384.9,314.1h-4.3l-2.5-4.4
			c1.2-0.4,2.4-0.9,3.5-1.5L-384.9,314.1z M-381.6,299.8c-2,2-4.2,3.7-6.7,5c0,0-0.1,0-0.1,0c0,0,0,0-0.1,0c-1.9,1-3.8,1.8-5.8,2.4
			c-0.1,0-0.2,0-0.2,0.1c-2.7,0.8-5.5,1.2-8.4,1.2s-5.7-0.4-8.4-1.2c-0.1,0-0.2-0.1-0.2-0.1c-2-0.6-4-1.4-5.8-2.4c0,0,0,0-0.1,0
			c0,0-0.1,0-0.1,0c-2.4-1.3-4.7-3-6.7-5c-5.7-5.7-8.8-13.2-8.8-21.3s3.1-15.6,8.8-21.3c5.7-5.7,13.2-8.8,21.3-8.8
			s15.6,3.1,21.3,8.8c3.7,3.7,6.4,8.3,7.8,13.4h-0.8c-0.4,0-0.8,0.2-1.1,0.4l-4,4c-0.4-2.8-1.3-5.4-2.6-7.9c-0.4-0.7-1.3-1-2.1-0.6
			c-0.7,0.4-1,1.3-0.6,2.1c1.4,2.6,2.2,5.5,2.5,8.3h-6.7c-0.3-3.1-1.7-5.9-3.9-8.2c-2.6-2.6-6-4-9.7-4s-7.1,1.4-9.7,4
			c-2.6,2.6-4,6-4,9.7s1.4,7.1,4,9.7c2.6,2.6,6,4,9.7,4s7.1-1.4,9.7-4c2.2-2.2,3.6-5.1,3.9-8.2h6.7c-0.4,4.8-2.4,9.4-5.9,12.9
			c-3.8,3.8-9,6-14.4,6c-5.4,0-10.6-2.1-14.4-6c-3.8-3.8-6-9-6-14.4c0-5.4,2.1-10.6,6-14.4c6.4-6.4,16.3-7.8,24.2-3.4
			c0.7,0.4,1.7,0.1,2.1-0.6c0.4-0.7,0.1-1.7-0.6-2.1c-4.4-2.4-9.5-3.4-14.4-2.7c-5.1,0.7-9.8,3-13.4,6.6c-4.4,4.4-6.9,10.3-6.9,16.5
			s2.4,12.1,6.9,16.5c4.4,4.4,10.3,6.9,16.5,6.9s12.1-2.4,16.5-6.9c3.6-3.6,5.9-8.1,6.6-13.1l4,4c0.3,0.3,0.7,0.4,1.1,0.4h0.8
			C-375.2,291.4-377.9,296.1-381.6,299.8z M-397.9,275.6c-0.4-0.7-1.3-1-2.1-0.6l-3.6,2.1c-0.5,0.3-0.8,0.8-0.8,1.3
			c0,0.5,0.3,1,0.8,1.3l3.6,2.1c0.2,0.1,0.5,0.2,0.8,0.2c0.5,0,1-0.3,1.3-0.8c0.2-0.4,0.3-0.9,0.1-1.3h5.5c-0.3,2.3-1.4,4.4-3,6l0,0
			c-2,2-4.7,3.1-7.5,3.1s-5.5-1.1-7.5-3.1c-2-2-3.1-4.7-3.1-7.5c0-2.8,1.1-5.5,3.1-7.5c2-2,4.7-3.1,7.5-3.1s5.5,1.1,7.5,3.1
			c1.6,1.6,2.7,3.7,3,6h-5.5C-397.6,276.6-397.7,276.1-397.9,275.6z M-374,283.4l-3.3-3.3h10.6l3.3,3.3H-374z"/>
	</g>
</g>
</svg>
