<?xml version="1.0" encoding="utf-8"?>
<!-- Generator: Adobe Illustrator 19.0.0, SVG Export Plug-In . SVG Version: 6.00 Build 0)  -->
<svg version="1.1" id="Capa_1" xmlns="http://www.w3.org/2000/svg" xmlns:xlink="http://www.w3.org/1999/xlink" x="0px" y="0px"
	 viewBox="-439 241 80 80" style="enable-background:new -439 241 80 80;" xml:space="preserve">
<style type="text/css">
	.st0{fill:url(#SVGID_1_);stroke:#3D97D3;stroke-width:1.0733;stroke-miterlimit:10;}
	.st1{fill:url(#SVGID_2_);stroke:#3D97D3;stroke-width:1.0733;stroke-miterlimit:10;}
	.st2{fill:url(#SVGID_3_);stroke:#3D97D3;stroke-width:1.0733;stroke-miterlimit:10;}
	.st3{fill:url(#SVGID_4_);stroke:#3D97D3;stroke-width:1.0733;stroke-miterlimit:10;}
</style>
<g>
	<linearGradient id="SVGID_1_" gradientUnits="userSpaceOnUse" x1="-431.1395" y1="286.56" x2="-428.2098" y2="286.56">
		<stop  offset="0" style="stop-color:#3D97D3"/>
		<stop  offset="1" style="stop-color:#69B652"/>
	</linearGradient>
	<path class="st0" d="M-429.7,285.1c-0.8,0-1.5,0.7-1.5,1.5c0,0.8,0.7,1.5,1.5,1.5c0.8,0,1.5-0.7,1.5-1.5
		C-428.2,285.8-428.9,285.1-429.7,285.1z"/>
	<linearGradient id="SVGID_2_" gradientUnits="userSpaceOnUse" x1="-436.9988" y1="296.8135" x2="-362" y2="296.8135">
		<stop  offset="0" style="stop-color:#3D97D3"/>
		<stop  offset="1" style="stop-color:#69B652"/>
	</linearGradient>
	<path class="st1" d="M-369.7,290.2l-13.8,4.7c0.1-0.3,0.1-0.7,0.1-1c0-3.2-2.6-5.9-5.9-5.9h-9.5c-0.3,0-0.5-0.1-0.7-0.2l-7.7-4.4
		c-1.5-0.9-3.3-1.3-5-1.3h-10.4c-0.6-1.7-2.2-2.9-4.1-2.9h-8.8c-0.8,0-1.5,0.7-1.5,1.5v26.4c0,0.8,0.7,1.5,1.5,1.5h8.8
		c1.9,0,3.5-1.2,4.1-2.8c1.7,0.2,3.6,0.7,4.8,1.4l7.7,4.6c2.9,1.7,6.2,2.7,9.6,2.7c2.7,0,5.3-0.6,7.7-1.7l27.3-12
		c3-1.2,4.5-4.9,2.8-8.1C-364,290.3-367,289.2-369.7,290.2z M-425.3,304.1c0,0.8-0.7,1.5-1.5,1.5h-7.3v-23.4h7.3
		c0.8,0,1.5,0.7,1.5,1.5V304.1z M-366.6,298C-366.7,298-366.7,298-366.6,298c0,0-27.4,12.1-27.4,12.1c-2.1,0.9-4.3,1.4-6.5,1.4
		c-2.9,0-5.7-0.8-8.1-2.2l-7.7-4.6c-1.6-1-4-1.6-6-1.8v-17.7h10.1c1.3,0,2.5,0.3,3.6,0.9l7.7,4.4c0.7,0.4,1.4,0.6,2.2,0.6h9.5
		c1.6,0,2.9,1.3,2.9,2.9c0,1.6-1.3,2.9-2.9,2.9h-14.9c-0.8,0-1.5,0.7-1.5,1.5c0,0.8,0.7,1.5,1.5,1.5h14.9c1,0,1.9-0.2,2.7-0.7
		c0,0,17.8-6.1,17.8-6.1c1.3-0.5,2.8,0,3.4,1.1C-364.4,295.6-365.2,297.4-366.6,298z"/>
	<linearGradient id="SVGID_3_" gradientUnits="userSpaceOnUse" x1="-413.5691" y1="264.6463" x2="-373.0728" y2="264.6463">
		<stop  offset="0" style="stop-color:#3D97D3"/>
		<stop  offset="1" style="stop-color:#69B652"/>
	</linearGradient>
	<path class="st2" d="M-394.3,282.2c0.3,0.2,0.6,0.4,1,0.4c0.3,0,0.7-0.1,1-0.4c12-10.4,19.3-15.6,19.3-23.7c0-6.4-4.6-11.8-11-11.8
		c-4.2,0-7.4,2.4-9.5,6.1c-2.1-3.6-5.3-6.1-9.5-6.1c-4.9,0-9,3.2-10.5,8.1c-0.2,0.8,0.2,1.6,1,1.8c0.8,0.2,1.6-0.2,1.8-1
		c1.1-3.6,4.1-6,7.6-6c4.2,0,7.1,3.7,8.1,7.2c0.2,0.6,0.8,1.1,1.4,1.1c0.7,0,1.2-0.4,1.4-1.1c0-0.1,2.1-7.2,8.1-7.2
		c4.6,0,8,3.8,8,8.9c0,6.5-6.4,11.2-17.4,20.7c-6.7-5.8-12-9.8-15.1-13.8c-0.5-0.6-1.4-0.8-2.1-0.3c-0.6,0.5-0.8,1.4-0.3,2.1
		C-407.4,271.7-401.6,275.9-394.3,282.2z"/>
	<linearGradient id="SVGID_4_" gradientUnits="userSpaceOnUse" x1="-413.7081" y1="261.072" x2="-410.7784" y2="261.072">
		<stop  offset="0" style="stop-color:#3D97D3"/>
		<stop  offset="1" style="stop-color:#69B652"/>
	</linearGradient>
	<path class="st3" d="M-412.2,259.6c-0.8,0-1.5,0.7-1.5,1.5c0,0.8,0.7,1.5,1.5,1.5c0.8,0,1.5-0.7,1.5-1.5
		C-410.8,260.3-411.4,259.6-412.2,259.6z"/>
</g>
</svg>
