<?xml version="1.0" encoding="utf-8"?>
<!-- Generator: Adobe Illustrator 19.0.0, SVG Export Plug-In . SVG Version: 6.00 Build 0)  -->
<svg version="1.1" id="Capa_1" xmlns="http://www.w3.org/2000/svg" xmlns:xlink="http://www.w3.org/1999/xlink" x="0px" y="0px"
	 viewBox="-439 241 80 80" style="enable-background:new -439 241 80 80;" xml:space="preserve">
<style type="text/css">
	.st0{fill:url(#SVGID_1_);stroke:#3D97D3;stroke-width:1.0733;stroke-miterlimit:10;}
	.st1{fill:url(#SVGID_2_);stroke:#3D97D3;stroke-width:1.0733;stroke-miterlimit:10;}
	.st2{fill:url(#SVGID_3_);stroke:#3D97D3;stroke-width:1.0733;stroke-miterlimit:10;}
	.st3{fill:url(#SVGID_4_);stroke:#3D97D3;stroke-width:1.0733;stroke-miterlimit:10;}
	.st4{fill:url(#SVGID_5_);stroke:#3D97D3;stroke-width:1.0733;stroke-miterlimit:10;}
	.st5{fill:url(#SVGID_6_);stroke:#3D97D3;stroke-width:1.0733;stroke-miterlimit:10;}
	.st6{fill:url(#SVGID_7_);stroke:#3D97D3;stroke-width:1.0733;stroke-miterlimit:10;}
</style>
<linearGradient id="SVGID_1_" gradientUnits="userSpaceOnUse" x1="-413.6434" y1="251.5813" x2="-405.1763" y2="251.5813">
	<stop  offset="0" style="stop-color:#3D97D3"/>
	<stop  offset="1" style="stop-color:#69B652"/>
</linearGradient>
<path class="st0" d="M-409.4,255.8c2.3,0,4.2-1.9,4.2-4.2c0-2.3-1.9-4.2-4.2-4.2c-2.3,0-4.2,1.9-4.2,4.2
	C-413.6,253.9-411.7,255.8-409.4,255.8z M-409.4,249.9c0.9,0,1.7,0.7,1.7,1.7c0,0.9-0.7,1.7-1.7,1.7c-0.9,0-1.7-0.7-1.7-1.7
	C-411.1,250.7-410.3,249.9-409.4,249.9z"/>
<linearGradient id="SVGID_2_" gradientUnits="userSpaceOnUse" x1="-396.8812" y1="308.3156" x2="-388.4141" y2="308.3156">
	<stop  offset="0" style="stop-color:#3D97D3"/>
	<stop  offset="1" style="stop-color:#69B652"/>
</linearGradient>
<path class="st1" d="M-392.6,304.1c-2.3,0-4.2,1.9-4.2,4.2s1.9,4.2,4.2,4.2c2.3,0,4.2-1.9,4.2-4.2S-390.3,304.1-392.6,304.1z
	 M-392.6,310c-0.9,0-1.7-0.7-1.7-1.7c0-0.9,0.7-1.7,1.7-1.7c0.9,0,1.7,0.7,1.7,1.7C-391,309.2-391.7,310-392.6,310z"/>
<linearGradient id="SVGID_3_" gradientUnits="userSpaceOnUse" x1="-428.1664" y1="247.713" x2="-424.1778" y2="247.713">
	<stop  offset="0" style="stop-color:#3D97D3"/>
	<stop  offset="1" style="stop-color:#69B652"/>
</linearGradient>
<path class="st2" d="M-424.2,247.7c0,1.1-0.9,2-2,2c-1.1,0-2-0.9-2-2s0.9-2,2-2C-425.1,245.7-424.2,246.6-424.2,247.7z"/>
<linearGradient id="SVGID_4_" gradientUnits="userSpaceOnUse" x1="-374.0114" y1="307.0259" x2="-370.0228" y2="307.0259">
	<stop  offset="0" style="stop-color:#3D97D3"/>
	<stop  offset="1" style="stop-color:#69B652"/>
</linearGradient>
<path class="st3" d="M-370,307c0,1.1-0.9,2-2,2c-1.1,0-2-0.9-2-2c0-1.1,0.9-2,2-2C-370.9,305-370,305.9-370,307z"/>
<linearGradient id="SVGID_5_" gradientUnits="userSpaceOnUse" x1="-371.717" y1="288.3295" x2="-364.5804" y2="288.3295">
	<stop  offset="0" style="stop-color:#3D97D3"/>
	<stop  offset="1" style="stop-color:#69B652"/>
</linearGradient>
<path class="st4" d="M-365,285.1c-0.5-0.5-1.3-0.5-1.8,0l-1.4,1.4l-1.4-1.4c-0.5-0.5-1.3-0.5-1.8,0c-0.5,0.5-0.5,1.3,0,1.8l1.4,1.4
	l-1.4,1.4c-0.5,0.5-0.5,1.3,0,1.8c0.3,0.3,0.6,0.4,0.9,0.4s0.7-0.1,0.9-0.4l1.4-1.4l1.4,1.4c0.3,0.3,0.6,0.4,0.9,0.4
	c0.3,0,0.7-0.1,0.9-0.4c0.5-0.5,0.5-1.3,0-1.8l-1.4-1.4l1.4-1.4C-364.5,286.5-364.5,285.6-365,285.1z"/>
<linearGradient id="SVGID_6_" gradientUnits="userSpaceOnUse" x1="-433.6093" y1="274.1462" x2="-426.4721" y2="274.1462">
	<stop  offset="0" style="stop-color:#3D97D3"/>
	<stop  offset="1" style="stop-color:#69B652"/>
</linearGradient>
<path class="st5" d="M-433.2,277.3c0.3,0.3,0.6,0.4,0.9,0.4c0.3,0,0.7-0.1,0.9-0.4l1.4-1.4l1.4,1.4c0.3,0.3,0.6,0.4,0.9,0.4
	s0.7-0.1,0.9-0.4c0.5-0.5,0.5-1.3,0-1.8l-1.4-1.4l1.4-1.4c0.5-0.5,0.5-1.3,0-1.8c-0.5-0.5-1.3-0.5-1.8,0l-1.4,1.4l-1.4-1.4
	c-0.5-0.5-1.3-0.5-1.8,0c-0.5,0.5-0.5,1.3,0,1.8l1.4,1.4l-1.4,1.4C-433.7,276-433.7,276.8-433.2,277.3z"/>
<linearGradient id="SVGID_7_" gradientUnits="userSpaceOnUse" x1="-437.7766" y1="281.0009" x2="-361" y2="281.0009">
	<stop  offset="0" style="stop-color:#3D97D3"/>
	<stop  offset="1" style="stop-color:#69B652"/>
</linearGradient>
<path class="st6" d="M-361.4,257.6l-14.9-14.9c-0.5-0.5-1.3-0.5-1.8,0l-20.7,20.7c-0.5,0.5-0.5,1.3,0,1.8l1.6,1.6l-14.8,14.8
	c-0.2,0.2-0.4,0.6-0.4,0.9c0,0.3,0.1,0.7,0.4,0.9l0.7,0.7l-20.6,20.6l-3.2,3.2l-0.6-0.6c-0.5-0.5-1.3-0.5-1.8,0
	c-0.5,0.5-0.5,1.3,0,1.8l1.4,1.4c0,0,0,0.1,0.1,0.1l6.6,6.6c0,0,0.1,0,0.1,0.1l1.8,1.8c0.3,0.3,0.6,0.4,0.9,0.4
	c0.3,0,0.7-0.1,0.9-0.4c0.5-0.5,0.5-1.3,0-1.8l-1-1l3.2-3.2l20.6-20.6l0.7,0.7c0.3,0.3,0.6,0.4,0.9,0.4c0.3,0,0.7-0.1,0.9-0.4
	l14.8-14.8l1.6,1.6c0.3,0.3,0.6,0.4,0.9,0.4s0.7-0.1,0.9-0.4l16.5-16.5l4.1-4.1C-360.9,259-360.9,258.1-361.4,257.6z M-433.2,309.8
	l2.3-2.3l4.8,4.8l-2.3,2.3L-433.2,309.8z M-424.3,310.5l-4.8-4.8l19.7-19.7l4.8,4.8L-424.3,310.5z M-401.1,290.6l-8.1-8.1l13.9-13.9
	l8.1,8.1L-401.1,290.6z M-383,277.4l-1.6-1.6c0,0,0,0,0,0c0,0,0,0,0,0l-9.9-9.9c0,0,0,0,0,0c0,0,0,0,0,0l-1.6-1.6l14.7-14.7
	l13.1,13.1L-383,277.4z M-366.4,260.9l-13.1-13.1l2.3-2.3l13.1,13.1L-366.4,260.9z"/>
</svg>
