<?xml version="1.0" encoding="utf-8"?>
<!-- Generator: Adobe Illustrator 19.0.0, SVG Export Plug-In . SVG Version: 6.00 Build 0)  -->
<svg version="1.1" id="Capa_1" xmlns="http://www.w3.org/2000/svg" xmlns:xlink="http://www.w3.org/1999/xlink" x="0px" y="0px"
	 viewBox="11 141 549 549" style="enable-background:new 11 141 549 549;" xml:space="preserve">
<style type="text/css">
	.st0{fill:#FFFFFF;}
</style>
<g id="XMLID_1051_">
	<g id="XMLID_1748_">
		<path id="XMLID_1754_" class="st0" d="M467.6,506.9l-164,41.3c-1.4-4.9-4-9.4-7.8-13.2l-52.2-52.2c-6.5-6.5-15.1-10-24.3-10H115
			c-1.9-18.1-17.2-32.1-35.6-32.1H52.3c-19.8,0-35.9,16.1-35.9,35.9v72.3c0,3.9,3.1,7.1,7.1,7.1c3.9,0,7.1-3.1,7.1-7.1v-72.3
			c0-12,9.7-21.7,21.7-21.7h27.1c10.6,0,19.4,7.7,21.3,17.7c0.6,2.9,0.4-5.6,0.4,130.2c0,12-9.7,21.7-21.7,21.7H52.4
			c-12,0-21.7-9.7-21.7-21.7v-25.4c0-3.9-3.1-7.1-7.1-7.1c-3.9,0-7.1,3.1-7.1,7.1v25.4c0,19.8,16.1,35.9,35.9,35.9h27.1
			c19.8,0,35.9-16.1,35.9-35.9v-12.5c52.4,9.1,41.2,5.7,119.2,43.9c12.7,6.2,25,18,50.8,18c13.8,0,27.3-3.9,39-11.2l135.3-68.6
			c3.5-1.8,5-6.1,3.1-9.5c-1.8-3.5-6.1-4.9-9.5-3.1c-0.5,0.3-135.8,68.8-136.3,69.1c-9.4,6-20.4,9.2-31.6,9.2
			c-21.6,0-31-9.9-44.6-16.6c-79.4-38.9-68.1-35.7-125.5-45.6v-88.9h104.1c5.3,0,10.4,2.1,14.2,5.9l52.2,52.2
			c10.3,10.3,3.3,27.5-10.9,27.5c-4.3,0-8.3-1.6-11.2-4.7l-47.1-47.1c-2.8-2.8-7.2-2.8-10.1,0c-2.9,2.8-2.8,7.2,0,10.1l47.1,47.1
			c17,17,46.2,8.3,50.8-15.3c175.8-44.3,166.1-41.9,167.9-41.9c14.4,0,19.3,19.5,6.4,26.1c-3.5,1.8-5,6.1-3.1,9.5
			c1.8,3.5,6.1,5,9.5,3.1c10.5-5.3,15.2-15.5,15.2-24.9C500.3,515.2,481.4,503.3,467.6,506.9z"/>
		<g id="XMLID_1755_">
			<path id="XMLID_1757_" class="st0" d="M487.5,366c13.9-7.1,21.9-19.2,22.5-33.6c0.7-15.5-7.8-31.6-21.1-40
				c-12.5-7.9-27-8.1-40.9-0.8l-5.3,2.9c-43.7-6.5-65.1-19.8-82.2-30.6c-15.2-9.5-28.4-17.8-50.7-17.7c-22.3-0.1-35.5,8.2-50.7,17.7
				c-17.2,10.8-38.5,24.1-82.2,30.6l-5.3-2.9c-13.9-7.4-28.4-7.1-40.9,0.8c-13.2,8.4-21.7,24.5-21.1,40c0.4,9.9,4.3,18.7,11.1,25.4
				c3.1,3.1,7,5.9,11.4,8.2l44.5,23.1h0.1c6.2,15.6,16.5,30.8,30.4,44.8c5.3,5.3,11.2,10.5,17.6,15.4c27.7,21.4,62.7,36.5,85.1,36.5
				c22.4,0,57.5-15,85.2-36.5c23.2-17.9,39.5-38.6,48-60.2c0,0,0,0,0.1,0L487.5,366z M265.5,274c14.8-9.2,25.4-15.9,44.3-15.9
				c18.8-0.1,29.4,6.7,44.3,15.9c17.7,11.1,39.5,24.8,83.7,31.8v33.7c-43.1-18-86.1-27.3-128.1-27.4c-42.3-0.1-85.3,9-127.9,27
				v-33.4C225.9,298.8,247.8,285.1,265.5,274L265.5,274z M137.6,355.3c-12.7-6.6-15.7-16.4-16-23.5c-0.5-11.4,5.7-23.3,15.4-29.4
				c6.1-3.9,16.1-7.1,28.9-0.3l3.9,2.1V354c0,6.4,0.7,12.7,2,19L137.6,355.3z M387.6,439.9c-28.8,22.3-60.9,33.9-77.8,33.9
				s-49-11.6-77.8-34c-1.2-1-2.5-1.9-3.7-3c54.3-12.6,107.8-12.5,162.8,0.3C389.8,438,388.7,439,387.6,439.9L387.6,439.9z
				 M401.9,427.4c-30.9-7.8-61.9-11.8-92.3-11.8c-30.6-0.1-61.7,3.8-92.2,11.6c-8.8-8.5-17.8-19.3-24.7-31.9
				c30.2-10,60.6-16.2,90.5-18.4c3.3-0.3,5.8-3.1,5.5-6.5c-0.3-3.3-3.1-5.8-6.5-5.5c-31.4,2.3-63.2,8.9-94.7,19.3
				c-3.6-9.2-5.8-19.3-5.8-30.1v-1.7c85.2-37.5,169-37.5,256,0.3v1.4c0,10.9-2.3,21.1-5.9,30.4C400,374,368.2,367.4,337.1,365
				c-3.3-0.3-6.2,2.2-6.5,5.5c-0.1,1.8,0.6,3.5,1.7,4.8c1,1,2.3,1.6,3.8,1.7c29.6,2.3,60,8.5,90.4,18.5
				C419.9,408.1,410.7,418.9,401.9,427.4L401.9,427.4z M447.8,373.1c1.3-6.3,2-12.7,2-19v-5.2l0,0v-44.5l3.9-2.1
				c12.8-6.8,22.7-3.6,28.9,0.3c9.7,6.1,15.9,17.9,15.4,29.4c-0.3,7.1-3.3,17-16,23.5L447.8,373.1z"/>
			<path id="XMLID_1756_" class="st0" d="M309.7,363.9c-3.3,0-6,2.8-6,6.1c0,1.6,0.7,3.1,1.7,4.2c1.1,1.1,2.7,1.8,4.3,1.7l0,0
				c3.3,0,6-2.8,5.9-6.1C315.8,366.5,313,363.8,309.7,363.9z"/>
		</g>
	</g>
	<path class="st0" d="M553.3,231.1l-13.2-4.8c0.1-1.5,0.1-3.1,0-4.7l13.2-4.8c2.9-1,4.4-4.2,3.3-7.1l-4.5-12.2
		c-1-2.9-4.2-4.4-7.1-3.3l-13.2,4.8c-1-1.2-1.9-2.5-3-3.6l7-12.1c1.5-2.7,0.6-6-2-7.5l-11.2-6.5c-1.2-0.8-2.8-1-4.2-0.6
		s-2.7,1.3-3.3,2.6l-7,12.1c-1.5-0.4-3-0.7-4.6-0.8l-2.4-13.7c-0.6-3-3.4-5.1-6.4-4.5l-12.8,2.3c-3,0.6-5.1,3.4-4.5,6.4l2.4,13.7
		c-1.4,0.7-2.8,1.5-4,2.4l-10.7-9c-2.4-2-5.8-1.6-7.8,0.7l-8.4,10c-2,2.4-1.6,5.8,0.7,7.8l10.7,9c-0.6,1.4-1.1,2.9-1.6,4.4h-13.9
		c-3,0-5.5,2.5-5.5,5.5v13.1c0,3,2.5,5.5,5.5,5.5h13.9c0.5,1.5,1,3,1.6,4.4l-10.7,9c-2.4,2-2.7,5.4-0.7,7.8l8.4,10
		c2,2.4,5.4,2.7,7.8,0.7l10.7-9c1.3,0.9,2.7,1.6,4,2.4l-2.4,13.7c-0.6,3,1.4,5.9,4.5,6.4l12.8,2.3c3,0.6,5.9-1.4,6.4-4.5l2.4-13.7
		c1.5-0.2,3-0.5,4.6-0.8l7,12.1c1.5,2.7,5,3.5,7.5,2l11.2-6.5c2.7-1.5,3.5-5,2-7.5l-7-12.1c1-1.1,2.1-2.3,3-3.6l13.2,4.8
		c2.9,1,6-0.4,7.1-3.3l4.5-12.2C557.6,235.3,556.1,232.1,553.3,231.1z M523.5,210.1L492.7,241c-2,2-5.1,2-7.1,0l-13.2-13.2
		c-1-1-1-2.8,0-3.8s2.8-1,3.8,0l12.9,12.9l30.6-30.6c1-1,2.8-1,3.8,0C524.6,207.3,524.6,209,523.5,210.1z"/>
</g>
</svg>
