<?xml version="1.0" encoding="utf-8"?>
<!-- Generator: Adobe Illustrator 19.0.0, SVG Export Plug-In . SVG Version: 6.00 Build 0)  -->
<svg version="1.1" id="Capa_1" xmlns="http://www.w3.org/2000/svg" xmlns:xlink="http://www.w3.org/1999/xlink" x="0px" y="0px"
	 viewBox="0 0 80 80" style="enable-background:new 0 0 80 80;" xml:space="preserve">
<style type="text/css">
	.st0{fill:url(#XMLID_2_);stroke:#3B97D3;stroke-width:1.0986;stroke-miterlimit:10;}
	.st1{fill:url(#XMLID_3_);stroke:#3B97D3;stroke-width:1.0986;stroke-miterlimit:10;}
	.st2{fill:url(#XMLID_4_);stroke:#3B97D3;stroke-width:1.0986;stroke-miterlimit:10;}
	.st3{fill:url(#XMLID_5_);stroke:#3B97D3;stroke-width:1.0986;stroke-miterlimit:10;}
	.st4{fill:#FFFFFF;}
</style>
<g id="XMLID_1051_">
	<g id="XMLID_1748_">
		<linearGradient id="XMLID_2_" gradientUnits="userSpaceOnUse" x1="2.6004" y1="58.4904" x2="71.0948" y2="58.4904">
			<stop  offset="0" style="stop-color:#3B97D3"/>
			<stop  offset="1" style="stop-color:#68B651"/>
		</linearGradient>
		<path id="XMLID_1754_" class="st0" d="M66.5,52.9l-23.2,5.8c-0.2-0.7-0.6-1.3-1.1-1.9l-7.4-7.4c-0.9-0.9-2.1-1.4-3.4-1.4H16.6
			c-0.3-2.5-2.4-4.5-5.1-4.5H7.7c-2.8,0-5.1,2.3-5.1,5.1v10.2c0,0.6,0.5,1,1,1c0.6,0,1-0.5,1-1V48.6c0-1.7,1.4-3.1,3.1-3.1h3.8
			c1.5,0,2.8,1.1,3,2.5c0.1,0.4,0.1-0.8,0.1,18.4c0,1.7-1.4,3.1-3.1,3.1H7.7c-1.7,0-3.1-1.4-3.1-3.1v-3.6c0-0.6-0.5-1-1-1
			c-0.6,0-1,0.5-1,1v3.6c0,2.8,2.3,5.1,5.1,5.1h3.8c2.8,0,5.1-2.3,5.1-5.1v-1.8c7.4,1.3,5.8,0.8,16.9,6.2c1.8,0.9,3.5,2.5,7.2,2.5
			c2,0,3.9-0.5,5.5-1.6l19.2-9.7c0.5-0.3,0.7-0.9,0.4-1.4s-0.9-0.7-1.4-0.4c-0.1,0-19.2,9.7-19.3,9.8c-1.3,0.9-2.9,1.3-4.5,1.3
			c-3.1,0-4.4-1.4-6.3-2.3c-11.2-5.5-9.6-5.1-17.8-6.5V50.1h14.7c0.8,0,1.5,0.3,2,0.8l7.4,7.4c1.5,1.5,0.5,3.9-1.5,3.9
			c-0.6,0-1.2-0.2-1.6-0.7l-6.7-6.7c-0.4-0.4-1-0.4-1.4,0c-0.4,0.4-0.4,1,0,1.4l6.7,6.7c2.4,2.4,6.5,1.2,7.2-2.2
			c24.9-6.3,23.5-5.9,23.8-5.9c2,0,2.7,2.8,0.9,3.7c-0.5,0.3-0.7,0.9-0.4,1.4c0.3,0.5,0.9,0.7,1.4,0.4c1.5-0.8,2.2-2.2,2.2-3.5
			C71.1,54.1,68.4,52.4,66.5,52.9z"/>
		<g id="XMLID_1755_">
			<linearGradient id="XMLID_3_" gradientUnits="userSpaceOnUse" x1="15.7831" y1="32.9516" x2="72.4783" y2="32.9516">
				<stop  offset="0" style="stop-color:#3B97D3"/>
				<stop  offset="1" style="stop-color:#68B651"/>
			</linearGradient>
			<path id="XMLID_1757_" class="st1" d="M69.3,33c2-1,3.1-2.7,3.2-4.8c0.1-2.2-1.1-4.5-3-5.7c-1.8-1.1-3.8-1.2-5.8-0.1l-0.8,0.4
				c-6.2-0.9-9.2-2.8-11.6-4.3c-2.2-1.4-4-2.5-7.2-2.5c-3.2,0-5,1.2-7.2,2.5c-2.4,1.5-5.4,3.4-11.6,4.3l-0.8-0.4c-2-1-4-1-5.8,0.1
				c-1.9,1.2-3.1,3.5-3,5.7c0.1,1.4,0.6,2.6,1.6,3.6c0.4,0.4,1,0.8,1.6,1.2l6.3,3.3c0,0,0,0,0,0c0.9,2.2,2.3,4.4,4.3,6.3
				c0.8,0.8,1.6,1.5,2.5,2.2c3.9,3,8.9,5.2,12.1,5.2c3.2,0,8.1-2.1,12.1-5.2c3.3-2.5,5.6-5.5,6.8-8.5c0,0,0,0,0,0L69.3,33z
				 M37.9,19.9c2.1-1.3,3.6-2.3,6.3-2.3c2.7,0,4.2,0.9,6.3,2.3c2.5,1.6,5.6,3.5,11.8,4.5l0,4.8c-6.1-2.6-12.2-3.9-18.1-3.9
				c-6,0-12.1,1.3-18.1,3.8l0-4.7C32.3,23.4,35.4,21.5,37.9,19.9L37.9,19.9z M19.8,31.5c-1.8-0.9-2.2-2.3-2.3-3.3
				c-0.1-1.6,0.8-3.3,2.2-4.2c0.9-0.5,2.3-1,4.1,0l0.6,0.3v7c0,0.9,0.1,1.8,0.3,2.7L19.8,31.5z M55.1,43.4c-4.1,3.2-8.6,4.8-11,4.8
				c-2.4,0-6.9-1.7-11-4.8c-0.2-0.1-0.3-0.3-0.5-0.4c7.7-1.8,15.2-1.8,23,0C55.5,43.2,55.3,43.3,55.1,43.4L55.1,43.4z M57.2,41.6
				c-4.4-1.1-8.8-1.7-13.1-1.7c-4.3,0-8.7,0.5-13.1,1.6c-1.2-1.2-2.5-2.7-3.5-4.5c4.3-1.4,8.6-2.3,12.8-2.6c0.5,0,0.8-0.4,0.8-0.9
				c0-0.5-0.4-0.8-0.9-0.8c-4.4,0.3-8.9,1.2-13.4,2.7c-0.5-1.3-0.8-2.7-0.8-4.3l0-0.2c12.1-5.3,23.9-5.3,36.2,0v0.2
				c0,1.5-0.3,3-0.8,4.3c-4.5-1.5-9-2.4-13.4-2.8c-0.5,0-0.9,0.3-0.9,0.8c0,0.3,0.1,0.5,0.2,0.7c0.1,0.1,0.3,0.2,0.5,0.2
				c4.2,0.3,8.5,1.2,12.8,2.6C59.7,38.9,58.4,40.4,57.2,41.6L57.2,41.6z M63.7,34c0.2-0.9,0.3-1.8,0.3-2.7l0-0.7c0,0,0,0,0,0v-6.3
				l0.6-0.3c1.8-1,3.2-0.5,4.1,0c1.4,0.9,2.3,2.5,2.2,4.2c0,1-0.5,2.4-2.3,3.3L63.7,34z"/>
			<linearGradient id="XMLID_4_" gradientUnits="userSpaceOnUse" x1="43.2763" y1="33.506" x2="44.9798" y2="33.506">
				<stop  offset="0" style="stop-color:#3B97D3"/>
				<stop  offset="1" style="stop-color:#68B651"/>
			</linearGradient>
			<path id="XMLID_1756_" class="st2" d="M44.1,32.7c-0.5,0-0.8,0.4-0.8,0.9c0,0.2,0.1,0.4,0.2,0.6c0.2,0.2,0.4,0.3,0.6,0.2l0,0
				c0.5,0,0.8-0.4,0.8-0.9C45,33,44.6,32.7,44.1,32.7z"/>
		</g>
	</g>
	<linearGradient id="XMLID_5_" gradientUnits="userSpaceOnUse" x1="60.7298" y1="14.9889" x2="77.3996" y2="14.9889">
		<stop  offset="0" style="stop-color:#3B97D3"/>
		<stop  offset="1" style="stop-color:#68B651"/>
	</linearGradient>
	<path id="XMLID_881_" class="st3" d="M76.9,16L75,15.3c0-0.2,0-0.4,0-0.7l1.9-0.7c0.4-0.1,0.6-0.6,0.5-1l-0.6-1.7
		c-0.1-0.4-0.6-0.6-1-0.5l-1.9,0.7c-0.1-0.2-0.3-0.3-0.4-0.5l1-1.7c0.2-0.4,0.1-0.9-0.3-1.1l-1.6-0.9c-0.2-0.1-0.4-0.1-0.6-0.1
		c-0.2,0.1-0.4,0.2-0.5,0.4l-1,1.7c-0.2-0.1-0.4-0.1-0.7-0.1l-0.3-1.9c-0.1-0.4-0.5-0.7-0.9-0.6l-1.8,0.3c-0.4,0.1-0.7,0.5-0.6,0.9
		l0.3,1.9c-0.2,0.1-0.4,0.2-0.6,0.3l-1.5-1.3c-0.3-0.3-0.8-0.2-1.1,0.1l-1.2,1.4c-0.3,0.3-0.2,0.8,0.1,1.1l1.5,1.3
		c-0.1,0.2-0.2,0.4-0.2,0.6h-2c-0.4,0-0.8,0.4-0.8,0.8v1.8c0,0.4,0.4,0.8,0.8,0.8h2c0.1,0.2,0.1,0.4,0.2,0.6l-1.5,1.3
		c-0.3,0.3-0.4,0.8-0.1,1.1l1.2,1.4c0.3,0.3,0.8,0.4,1.1,0.1l1.5-1.3c0.2,0.1,0.4,0.2,0.6,0.3l-0.3,1.9c-0.1,0.4,0.2,0.8,0.6,0.9
		l1.8,0.3c0.4,0.1,0.8-0.2,0.9-0.6l0.3-1.9c0.2,0,0.4-0.1,0.7-0.1l1,1.7c0.2,0.4,0.7,0.5,1.1,0.3l1.6-0.9c0.4-0.2,0.5-0.7,0.3-1.1
		l-1-1.7c0.2-0.2,0.3-0.3,0.4-0.5l1.9,0.7c0.4,0.1,0.9-0.1,1-0.5l0.6-1.7C77.5,16.6,77.3,16.1,76.9,16z"/>
	<path id="XMLID_876_" class="st4" d="M72.1,12.5l-4.3,4.3L66,15c-0.2-0.2-0.4-0.2-0.5,0c-0.2,0.2-0.2,0.4,0,0.5l1.9,1.9
		c0.3,0.3,0.7,0.3,1,0l4.4-4.4c0.2-0.2,0.2-0.4,0-0.5C72.5,12.3,72.3,12.3,72.1,12.5z"/>
</g>
</svg>
