<?xml version="1.0" encoding="utf-8"?>
<!-- Generator: Adobe Illustrator 19.0.0, SVG Export Plug-In . SVG Version: 6.00 Build 0)  -->
<svg version="1.1" id="Capa_1" xmlns="http://www.w3.org/2000/svg" xmlns:xlink="http://www.w3.org/1999/xlink" x="0px" y="0px"
	 viewBox="0 0 142.2 30" style="enable-background:new 0 0 142.2 30;" xml:space="preserve">
<style type="text/css">
	.st0{fill:#364A5E;}
	.st1{fill:none;stroke:#FFFFFF;stroke-width:1.1914;stroke-linecap:round;stroke-linejoin:round;stroke-miterlimit:10;}
	.st2{fill:none;stroke:#FFFFFF;stroke-width:2;stroke-linecap:round;stroke-linejoin:round;stroke-miterlimit:10;}
	.st3{fill:#FFFFFF;}
</style>
<g>
	<circle id="XMLID_527_" class="st0" cx="14.7" cy="15" r="14.3"/>
	<g id="XMLID_521_">
		<circle id="XMLID_526_" class="st1" cx="8.1" cy="21.4" r="1.2"/>
		<path id="XMLID_525_" class="st2" d="M8,19v-8.4c0,0,0.2-2.5,3-2.4c3.1,0.1,3,3,3,3.4s0,6,0,6s0.3,3,3,3c2.6,0.1,2.9-2.2,3-2.6
			c0.1-0.8,0-4.6,0-4.6"/>
		<path id="XMLID_522_" class="st3" d="M18.7,12.4c0.5,1.1,1.1,2.1,1.1,2.1c0,0.1,0.1,0.1,0.2,0.1c0.1,0,0.2,0,0.2-0.1
			c0,0,0.5-1,1.1-2.1c0.7-1.5,1.1-2.6,1.1-3.1c0-1.3-1-2.3-2.3-2.3c-1.3,0-2.3,1-2.3,2.3C17.6,9.8,18,10.8,18.7,12.4z M19.9,8.3
			c0.6,0,1.1,0.5,1.1,1.1c0,0.5-0.7,2-1.1,2.8c-0.4-0.8-1.1-2.3-1.1-2.8C18.9,8.9,19.4,8.3,19.9,8.3z"/>
	</g>
	<g id="XMLID_510_">
		<path id="XMLID_518_" class="st3" d="M41.7,16.5h-4.1l-0.8,2.1h-2.6l4.1-9.9H41l4.1,9.9h-2.6L41.7,16.5z M41,14.6L39.6,11
			l-1.3,3.6H41z"/>
		<path id="XMLID_514_" class="st3" d="M55.4,14.4c0.3,0.4,0.5,0.9,0.5,1.5c0,1-0.3,1.7-1,2.1c-0.6,0.5-1.5,0.7-2.7,0.7h-5.7V8.7
			h5.5c1,0,1.9,0.2,2.4,0.7c0.6,0.5,0.9,1.1,0.9,1.9c0,0.5-0.1,0.9-0.3,1.3c-0.2,0.4-0.5,0.6-0.9,0.8C54.6,13.6,55,14,55.4,14.4z
			 M48.9,10.7v1.9h2.8c0.4,0,0.7-0.1,1-0.2c0.2-0.1,0.3-0.4,0.3-0.7c0-0.3-0.1-0.6-0.3-0.7c-0.2-0.2-0.5-0.3-0.9-0.3H48.9z M53,16.4
			c0.3-0.2,0.4-0.4,0.4-0.8c0-0.4-0.1-0.7-0.4-0.8c-0.3-0.2-0.6-0.3-1-0.3h-3v2.2h3C52.4,16.7,52.7,16.6,53,16.4z"/>
		<path id="XMLID_511_" class="st3" d="M59.9,18.3c-0.8-0.4-1.5-1-1.9-1.8c-0.5-0.8-0.7-1.7-0.7-2.8c0-1.1,0.2-2,0.7-2.8
			c0.5-0.8,1.1-1.4,2-1.8c0.8-0.4,1.7-0.6,2.6-0.6c0.8,0,1.7,0.2,2.4,0.5c0.8,0.3,1.4,0.7,1.9,1.3l-1.2,1.4
			c-0.4-0.3-0.9-0.6-1.4-0.8c-0.5-0.2-1-0.3-1.6-0.3c-0.6,0-1.1,0.1-1.6,0.4c-0.5,0.3-0.8,0.6-1.1,1.1c-0.3,0.5-0.4,1-0.4,1.7
			c0,0.6,0.1,1.2,0.4,1.7c0.3,0.5,0.6,0.8,1.1,1.1c0.5,0.3,1,0.4,1.6,0.4c0.5,0,1-0.1,1.5-0.3c0.5-0.2,1-0.5,1.4-0.8l1.2,1.4
			c-0.5,0.5-1.2,0.9-1.9,1.3c-0.8,0.3-1.6,0.5-2.4,0.5C61.6,18.9,60.8,18.7,59.9,18.3z"/>
	</g>
	<g id="XMLID_448_">
		<g>
			<path id="XMLID_152_" class="st3" d="M76.8,15.3h-2.1v3.4h-2.3V8.8h4.8c0.7,0,1.4,0.1,1.9,0.2c0.5,0.1,1,0.4,1.3,0.7
				c0.3,0.3,0.5,0.6,0.6,1c0.1,0.4,0.2,0.8,0.2,1.2c0,0.7-0.2,1.3-0.5,1.8c-0.3,0.5-0.8,0.8-1.5,1.1l2.4,3.7h-2.8L76.8,15.3z
				 M74.7,13.3h2.6c0.5,0,0.9-0.1,1.2-0.3c0.3-0.2,0.4-0.5,0.4-1c0-0.4-0.1-0.7-0.4-0.9c-0.3-0.2-0.7-0.3-1.2-0.3h-2.6V13.3z"/>
			<path id="XMLID_149_" class="st3" d="M90.2,15.8H85c0.1,0.5,0.4,0.9,0.7,1.1c0.4,0.2,0.8,0.4,1.4,0.4c0.7,0,1.5-0.2,2.3-0.6
				l0.6,1.4c-0.4,0.3-0.9,0.5-1.5,0.6c-0.5,0.1-1.1,0.2-1.6,0.2c-0.8,0-1.6-0.2-2.2-0.5c-0.6-0.3-1.1-0.8-1.5-1.3
				c-0.4-0.6-0.5-1.3-0.5-2c0-0.8,0.2-1.4,0.5-2c0.3-0.6,0.8-1,1.4-1.4c0.6-0.3,1.3-0.5,2.1-0.5c0.7,0,1.3,0.1,1.8,0.4
				c0.5,0.3,1,0.7,1.3,1.2c0.3,0.5,0.5,1.1,0.5,1.8C90.4,15,90.4,15.4,90.2,15.8z M87.9,13.3c-0.3-0.3-0.7-0.4-1.1-0.4
				c-0.5,0-0.8,0.1-1.2,0.4c-0.3,0.3-0.5,0.6-0.6,1.2h3.4C88.4,13.9,88.2,13.5,87.9,13.3z"/>
			<path id="XMLID_147_" class="st3" d="M93.8,18.4c-0.6-0.3-1.1-0.8-1.5-1.4c-0.4-0.6-0.5-1.3-0.5-2c0-0.8,0.2-1.4,0.5-2
				c0.3-0.6,0.8-1,1.5-1.4c0.6-0.3,1.3-0.5,2.2-0.5c1.2,0,2.3,0.3,3.1,1l-0.9,1.4c-0.3-0.2-0.6-0.4-0.9-0.5C96.9,13,96.5,13,96.2,13
				c-0.7,0-1.2,0.2-1.6,0.6c-0.4,0.4-0.6,0.9-0.6,1.5c0,0.6,0.2,1.1,0.6,1.5c0.4,0.4,0.9,0.5,1.6,0.5c0.4,0,0.7-0.1,1.1-0.2
				c0.4-0.1,0.7-0.3,0.9-0.5l0.9,1.4c-0.5,0.3-1,0.6-1.5,0.8c-0.5,0.2-1.1,0.3-1.7,0.3C95.1,18.9,94.4,18.7,93.8,18.4z"/>
			<path id="XMLID_145_" class="st3" d="M108,11.4v7.2h-1.9l-0.1-0.8c-0.4,0.3-0.8,0.6-1.2,0.8c-0.4,0.2-0.9,0.3-1.5,0.3
				c-0.9,0-1.6-0.3-2.1-0.8c-0.5-0.5-0.7-1.3-0.7-2.3v-4.3h2.2v4c0,1.1,0.5,1.7,1.4,1.7c0.6,0,1.2-0.2,1.7-0.7v-4.9H108z"/>
			<path id="XMLID_143_" class="st3" d="M114.6,11.3c0.2,0,0.4,0.1,0.5,0.1l-0.3,1.8c-0.3-0.1-0.6-0.2-0.9-0.2
				c-0.6,0-1.2,0.2-1.5,0.7c-0.1,0.1-0.2,0.3-0.3,0.4v4.5h-2.2v-7.2h1.8l0.2,0.9c0.1-0.1,0.1-0.2,0.3-0.3c0.5-0.5,1.1-0.8,1.9-0.8
				C114.2,11.3,114.4,11.3,114.6,11.3z"/>
			<path id="XMLID_141_" class="st3" d="M117.5,18.6c-0.6-0.2-1.1-0.4-1.5-0.7l0.8-1.4c0.4,0.2,0.8,0.4,1.3,0.5
				c0.5,0.1,0.9,0.2,1.3,0.2c0.4,0,0.7-0.1,0.9-0.2c0.2-0.1,0.3-0.3,0.3-0.4c0-0.2-0.1-0.3-0.3-0.4c-0.2-0.1-0.5-0.2-1-0.3
				c-0.2,0-0.4-0.1-0.6-0.2c-0.8-0.2-1.4-0.5-1.8-0.8c-0.4-0.3-0.6-0.8-0.6-1.5c0-0.7,0.3-1.3,1-1.7c0.6-0.4,1.5-0.6,2.5-0.6
				c0.6,0,1.1,0.1,1.7,0.2c0.5,0.1,1,0.3,1.5,0.6l-0.7,1.4c-0.3-0.2-0.7-0.3-1.1-0.4c-0.4-0.1-0.8-0.1-1.2-0.1c-0.4,0-0.7,0-0.9,0.1
				c-0.2,0.1-0.3,0.2-0.3,0.4c0,0.2,0.1,0.4,0.3,0.5c0.2,0.1,0.6,0.2,1.3,0.4c0.5,0.1,1,0.3,1.4,0.4c0.4,0.2,0.7,0.4,1,0.7
				c0.3,0.3,0.4,0.7,0.4,1.2c0,0.7-0.3,1.3-1,1.7c-0.6,0.4-1.5,0.6-2.6,0.6C118.8,18.9,118.1,18.8,117.5,18.6z"/>
			<path id="XMLID_138_" class="st3" d="M126.1,18.4c-0.6-0.3-1.1-0.8-1.4-1.3c-0.3-0.6-0.5-1.3-0.5-2c0-0.8,0.2-1.4,0.5-2
				c0.3-0.6,0.8-1,1.4-1.3c0.6-0.3,1.3-0.5,2.2-0.5c0.8,0,1.6,0.2,2.2,0.5c0.6,0.3,1.1,0.8,1.4,1.3c0.3,0.6,0.5,1.3,0.5,2
				c0,0.8-0.2,1.4-0.5,2c-0.3,0.6-0.8,1-1.4,1.3c-0.6,0.3-1.3,0.5-2.2,0.5C127.4,18.9,126.7,18.7,126.1,18.4z M129.7,16.6
				c0.3-0.3,0.5-0.9,0.5-1.6c0-0.7-0.2-1.2-0.5-1.6c-0.3-0.3-0.8-0.5-1.4-0.5c-0.6,0-1.1,0.2-1.4,0.5c-0.3,0.3-0.5,0.9-0.5,1.6
				c0,0.7,0.2,1.2,0.5,1.6c0.3,0.3,0.8,0.5,1.4,0.5C128.9,17.1,129.3,16.9,129.7,16.6z"/>
			<path id="XMLID_136_" class="st3" d="M135.1,18.6c-0.6-0.2-1.1-0.4-1.5-0.7l0.8-1.4c0.4,0.2,0.8,0.4,1.3,0.5
				c0.5,0.1,0.9,0.2,1.3,0.2c0.4,0,0.7-0.1,0.9-0.2c0.2-0.1,0.3-0.3,0.3-0.4c0-0.2-0.1-0.3-0.3-0.4c-0.2-0.1-0.5-0.2-1-0.3
				c-0.2,0-0.4-0.1-0.6-0.2c-0.8-0.2-1.4-0.5-1.8-0.8c-0.4-0.3-0.6-0.8-0.6-1.5c0-0.7,0.3-1.3,1-1.7c0.6-0.4,1.5-0.6,2.5-0.6
				c0.6,0,1.1,0.1,1.7,0.2c0.5,0.1,1,0.3,1.5,0.6l-0.7,1.4c-0.3-0.2-0.7-0.3-1.1-0.4c-0.4-0.1-0.8-0.1-1.2-0.1c-0.4,0-0.7,0-0.9,0.1
				c-0.2,0.1-0.3,0.2-0.3,0.4c0,0.2,0.1,0.4,0.3,0.5c0.2,0.1,0.6,0.2,1.3,0.4c0.5,0.1,1,0.3,1.4,0.4c0.4,0.2,0.7,0.4,1,0.7
				c0.3,0.3,0.4,0.7,0.4,1.2c0,0.7-0.3,1.3-1,1.7c-0.6,0.4-1.5,0.6-2.6,0.6C136.3,18.9,135.7,18.8,135.1,18.6z"/>
		</g>
	</g>
</g>
<ellipse id="XMLID_1_" class="st3" cx="8" cy="19" rx="2" ry="0.8"/>
</svg>
