<?xml version="1.0" encoding="utf-8"?>
<!-- Generator: Adobe Illustrator 19.0.0, SVG Export Plug-In . SVG Version: 6.00 Build 0)  -->
<svg version="1.1" id="Capa_1" xmlns="http://www.w3.org/2000/svg" xmlns:xlink="http://www.w3.org/1999/xlink" x="0px" y="0px"
	 viewBox="194 -158 467.5 396" style="enable-background:new 194 -158 467.5 396;" xml:space="preserve">
<style type="text/css">
	.st0{fill:#E6E6E6;}
	.st1{fill:#364A5E;}
	.st2{fill:none;stroke:#364A5E;stroke-width:7;stroke-linecap:round;stroke-linejoin:round;stroke-miterlimit:10;}
</style>
<g id="XMLID_455_">
	<g id="XMLID_457_">
		<g id="XMLID_573_">
			<path id="XMLID_578_" class="st0" d="M367,207c4.2,5.7,9.2,10.7,14.8,15h93.6c5.6-4.3,10.6-9.3,14.8-15H367z"/>
			<path id="XMLID_577_" class="st0" d="M352.1,137v24c0,2.4-0.4,4.7-0.2,7h153.3c0.2-2.3,0.8-4.6,0.8-7v-24H352.1z"/>
			<path id="XMLID_576_" class="st0" d="M506.1,129V-81c0-42.3-35-77-77.4-77h0.1c-42.3,0-76.7,34.6-76.7,77v210H506.1z"/>
			<path id="XMLID_575_" class="st0" d="M353.1,176c1.6,8.2,4.6,15.9,8.6,23h133.8c4-7.1,7-14.8,8.6-23H353.1z"/>
			<path id="XMLID_574_" class="st0" d="M394.6,230c10.3,5.1,21.8,8,34,8l0,0c12.2,0,23.8-2.9,34-8H394.6z"/>
		</g>
		<g id="XMLID_563_">
			<path id="XMLID_570_" class="st1" d="M226.7,84.7h-17.9l-3.5,9.4h-11.2l18-43.8h11.7l17.9,43.8h-11.6L226.7,84.7z M223.7,76.4
				l-5.9-15.9l-5.9,15.9H223.7z"/>
			<path id="XMLID_566_" class="st1" d="M287,75.2c1.4,1.9,2.2,4.1,2.2,6.6c0,4.2-1.4,7.3-4.2,9.3s-6.8,3-11.8,3h-24.9V50.3h24.2
				c4.6,0,8.2,1,10.7,3.1c2.5,2.1,3.8,4.9,3.8,8.5c0,2.1-0.5,4-1.5,5.6s-2.4,2.8-4.2,3.5C283.7,72,285.6,73.4,287,75.2z M258.7,59
				v8.4H271c1.8,0,3.2-0.3,4.2-0.9c1-0.6,1.5-1.6,1.5-3.1c0-1.4-0.5-2.5-1.5-3.3c-1-0.7-2.3-1.1-4-1.1C271.2,59,258.7,59,258.7,59z
				 M276.7,84.3c1.2-0.7,1.8-1.9,1.8-3.7c0-1.7-0.6-2.9-1.7-3.7c-1.2-0.8-2.7-1.2-4.6-1.2h-13.4v9.5H272
				C273.9,85.3,275.5,85,276.7,84.3z"/>
			<path id="XMLID_564_" class="st1" d="M307.2,92.3c-3.6-1.8-6.4-4.5-8.6-7.9c-2.1-3.5-3.2-7.5-3.2-12.2c0-4.8,1.1-8.9,3.2-12.3
				c2.1-3.5,5-6.1,8.6-7.9c3.6-1.8,7.5-2.7,11.7-2.7c3.7,0,7.3,0.7,10.6,2c3.4,1.3,6.2,3.2,8.5,5.5l-5.4,6.2
				c-1.9-1.5-3.9-2.7-6.2-3.6c-2.3-0.8-4.5-1.3-6.9-1.3c-2.6,0-5,0.6-7,1.7c-2,1.1-3.7,2.7-4.8,4.8c-1.2,2.1-1.8,4.6-1.8,7.4
				c0,2.9,0.6,5.3,1.8,7.4c1.2,2.1,2.8,3.7,4.9,4.9c2.1,1.1,4.4,1.7,7.1,1.7c2.3,0,4.5-0.4,6.8-1.3c2.3-0.8,4.3-2,6.2-3.6l5.4,6.1
				c-2.3,2.3-5.1,4.2-8.5,5.5c-3.3,1.4-6.9,2-10.7,2C314.6,95.1,310.7,94.1,307.2,92.3z"/>
		</g>
		<g id="XMLID_464_">
			<g>
				<path id="XMLID_151_" class="st1" d="M381.1,79.3h-9.2v14.8h-10.3V50.9h21c3.2,0,6,0.3,8.4,0.9s4.3,1.7,5.8,3.2
					c1.2,1.2,2.1,2.7,2.8,4.4c0.6,1.7,0.9,3.6,0.9,5.5c0,3.2-0.8,5.9-2.3,8s-3.7,3.7-6.7,4.7l10.3,16.3h-12.2L381.1,79.3z
					 M371.9,70.7h11.3c2.3,0,4.1-0.4,5.2-1.3c1.2-0.9,1.7-2.3,1.7-4.3c0-1.8-0.6-3.2-1.7-4.2s-2.9-1.5-5.3-1.5h-11.3L371.9,70.7
					L371.9,70.7z"/>
				<path id="XMLID_148_" class="st1" d="M440.4,81.3h-23c0.5,2.2,1.6,3.8,3.2,4.8c1.6,1.1,3.7,1.6,6.2,1.6c3.2,0,6.5-0.9,10-2.6
					l2.8,6.1c-2,1.2-4.1,2.2-6.5,2.8s-4.8,1-7.1,1c-3.7,0-6.9-0.7-9.7-2.1c-2.8-1.4-5-3.3-6.5-5.9c-1.6-2.5-2.3-5.5-2.3-9
					c0-3.3,0.7-6.3,2.2-8.8c1.5-2.6,3.6-4.6,6.3-6c2.7-1.4,5.8-2.1,9.3-2.1c3,0,5.7,0.6,8.1,1.8c2.4,1.2,4.3,2.9,5.7,5.1
					c1.4,2.2,2.1,4.9,2.1,7.9C441.2,77.9,441,79.7,440.4,81.3z M430.3,70.3c-1.3-1.2-3-1.8-5-1.8s-3.7,0.6-5.1,1.7
					c-1.4,1.1-2.3,2.8-2.8,5.1h14.7C432.2,73.1,431.6,71.5,430.3,70.3z"/>
				<path id="XMLID_146_" class="st1" d="M456,92.9c-2.8-1.4-4.9-3.4-6.5-6s-2.3-5.5-2.3-8.9c0-3.3,0.8-6.3,2.3-8.8s3.7-4.5,6.4-6
					c2.8-1.4,5.9-2.1,9.5-2.1c5.4,0,10,1.5,13.8,4.5l-3.8,6.3c-1.2-0.9-2.6-1.6-4.2-2.1s-3.2-0.8-4.8-0.8c-3,0-5.4,0.8-7.1,2.5
					c-1.8,1.7-2.7,3.9-2.7,6.5c0,2.8,0.9,5,2.7,6.6c1.8,1.6,4.2,2.4,7.1,2.4c1.6,0,3.2-0.3,4.8-0.8c1.6-0.5,3-1.2,4.1-2.1l3.8,6.3
					c-2,1.5-4.2,2.6-6.5,3.4c-2.4,0.7-4.8,1.1-7.3,1.1C461.9,95,458.8,94.3,456,92.9z"/>
				<path id="XMLID_144_" class="st1" d="M518.7,62.3v31.8h-8.4l-0.5-3.5c-1.8,1.4-3.6,2.5-5.5,3.3s-4,1.2-6.4,1.2
					c-3.9,0-7-1.2-9.2-3.5c-2.2-2.4-3.3-5.7-3.3-10.1V62.3h9.8v17.4c0,4.9,2,7.3,6.1,7.3c2.6,0,5.1-1.1,7.5-3.2V62.3H518.7z"/>
				<path id="XMLID_142_" class="st1" d="M547.7,61.8c0.9,0.2,1.7,0.3,2.4,0.6l-1.5,8c-1.1-0.5-2.4-0.7-4-0.7c-2.9,0-5.1,1-6.8,3.1
					c-0.4,0.6-0.8,1.2-1.2,1.8v19.7h-9.7v-32h8.1l0.7,4.2c0.2-0.4,0.7-0.9,1.2-1.5c2.2-2.3,5-3.4,8.3-3.4
					C546,61.5,546.8,61.6,547.7,61.8z"/>
				<path id="XMLID_140_" class="st1" d="M560.5,93.9c-2.7-0.8-5-1.8-6.8-3.2l3.4-6.2c1.7,1,3.6,1.8,5.7,2.4
					c2.1,0.6,4.1,0.9,5.9,0.9c1.8,0,3.1-0.2,4-0.7s1.3-1.1,1.3-1.9c0-0.8-0.4-1.4-1.2-1.8c-0.8-0.4-2.3-0.9-4.4-1.4
					c-0.8-0.2-1.7-0.4-2.8-0.7c-3.5-0.9-6.1-2.1-8-3.6s-2.8-3.6-2.8-6.5c0-3.1,1.4-5.6,4.2-7.3c2.8-1.8,6.5-2.6,11-2.6
					c2.5,0,4.9,0.3,7.3,0.9c2.4,0.6,4.6,1.5,6.5,2.6l-3.2,6.2c-1.3-0.8-3-1.4-4.9-1.8c-1.9-0.4-3.7-0.6-5.3-0.6
					c-1.7,0-3,0.2-3.9,0.6c-0.9,0.4-1.4,1-1.4,1.7c0,0.9,0.5,1.6,1.5,2s2.9,1,5.6,1.7c2.3,0.5,4.3,1.2,6,1.9
					c1.7,0.7,3.1,1.7,4.3,3.1c1.2,1.3,1.7,3.1,1.7,5.3c0,3.3-1.4,5.8-4.3,7.7c-2.8,1.8-6.6,2.8-11.2,2.8
					C566,95,563.2,94.6,560.5,93.9z"/>
				<path id="XMLID_137_" class="st1" d="M598.1,92.9c-2.7-1.4-4.8-3.4-6.2-5.9s-2.1-5.5-2.1-8.9s0.7-6.4,2.1-8.9
					c1.4-2.5,3.5-4.5,6.2-5.9c2.7-1.4,5.9-2.1,9.6-2.1s6.9,0.7,9.6,2.1c2.7,1.4,4.8,3.4,6.2,5.9c1.4,2.6,2.1,5.5,2.1,8.9
					s-0.7,6.4-2.1,8.9c-1.4,2.6-3.5,4.5-6.2,5.9c-2.7,1.4-5.9,2.1-9.6,2.1S600.8,94.3,598.1,92.9z M614,84.9
					c1.5-1.5,2.3-3.8,2.3-6.9c0-3.1-0.8-5.3-2.3-6.8s-3.6-2.2-6.2-2.2c-2.6,0-4.7,0.7-6.2,2.2s-2.3,3.8-2.3,6.8
					c0,3.1,0.8,5.4,2.3,6.9s3.6,2.3,6.2,2.3S612.5,86.4,614,84.9z"/>
				<path id="XMLID_135_" class="st1" d="M637.8,93.9c-2.7-0.8-5-1.8-6.8-3.2l3.4-6.2c1.7,1,3.6,1.8,5.7,2.4
					c2.1,0.6,4.1,0.9,5.9,0.9s3.1-0.2,4-0.7s1.3-1.1,1.3-1.9c0-0.8-0.4-1.4-1.2-1.8c-0.8-0.4-2.3-0.9-4.4-1.4
					c-0.8-0.2-1.7-0.4-2.8-0.7c-3.5-0.9-6.1-2.1-8-3.6s-2.8-3.6-2.8-6.5c0-3.1,1.4-5.6,4.2-7.3c2.8-1.8,6.5-2.6,11-2.6
					c2.5,0,4.9,0.3,7.3,0.9c2.4,0.6,4.6,1.5,6.5,2.6l-3.2,6.2c-1.3-0.8-3-1.4-4.9-1.8c-1.9-0.4-3.7-0.6-5.3-0.6
					c-1.7,0-3,0.2-3.9,0.6c-0.9,0.4-1.4,1-1.4,1.7c0,0.9,0.5,1.6,1.5,2s2.9,1,5.6,1.7c2.3,0.5,4.3,1.2,6,1.9
					c1.7,0.7,3.1,1.7,4.3,3.1c1.2,1.3,1.7,3.1,1.7,5.3c0,3.3-1.4,5.8-4.3,7.7c-2.8,1.8-6.6,2.8-11.2,2.8
					C643.2,95,640.5,94.6,637.8,93.9z"/>
			</g>
		</g>
		<g id="XMLID_458_">
			<circle id="XMLID_463_" class="st2" cx="392.9" cy="-42.3" r="7"/>
			<path id="XMLID_462_" class="st2" d="M393.6-52v-54c0,0,0.5-14.9,17.3-14.3c18.2,0.7,16.7,17.3,16.7,20s0,35,0,35
				s1.9,17.3,17.3,17.7c15.5,0.3,17.1-12.7,17.3-15.3c0.3-4.7,0.2-26,0.2-26"/>
			<path id="XMLID_459_" class="st1" d="M454.8-94c3.1,6.6,6.2,12.5,6.2,12.6c0.2,0.4,0.7,0.7,1.2,0.7s1-0.3,1.2-0.7
				c0-0.1,3.2-5.9,6.2-12.6c4.2-9,6.3-15.2,6.3-18.2c0-7.6-6.2-13.7-13.7-13.7c-7.6,0-13.7,6.2-13.7,13.7
				C448.5-109.2,450.6-103.1,454.8-94z M462.2-117.8c3.4,0,6.2,3,6.2,6.7c0,2.9-4,11.8-6.2,16.4c-2.2-4.6-6.2-13.5-6.2-16.4
				C456-114.8,458.8-117.8,462.2-117.8z"/>
		</g>
	</g>
	<ellipse id="XMLID_456_" class="st1" cx="392.8" cy="-56" rx="9" ry="4"/>
</g>
</svg>
