<?xml version="1.0" encoding="utf-8"?>
<!-- Generator: Adobe Illustrator 19.0.0, SVG Export Plug-In . SVG Version: 6.00 Build 0)  -->
<svg version="1.1" id="Capa_1" xmlns="http://www.w3.org/2000/svg" xmlns:xlink="http://www.w3.org/1999/xlink" x="0px" y="0px"
	 viewBox="-888 86 142.2 30" style="enable-background:new -888 86 142.2 30;" xml:space="preserve">
<style type="text/css">
	.st0{fill:#364A5E;}
	.st1{fill:none;stroke:#FFFFFF;stroke-width:1.1914;stroke-linecap:round;stroke-linejoin:round;stroke-miterlimit:10;}
	.st2{fill:none;stroke:#FFFFFF;stroke-width:2;stroke-linecap:round;stroke-linejoin:round;stroke-miterlimit:10;}
	.st3{fill:#FFFFFF;}
</style>
<g>
	<circle id="XMLID_527_" class="st0" cx="-873.3" cy="101" r="14.3"/>
	<g id="XMLID_521_">
		<circle id="XMLID_526_" class="st1" cx="-879.9" cy="107.4" r="1.2"/>
		<path id="XMLID_525_" class="st2" d="M-880,105v-8.4c0,0,0.2-2.5,3-2.4c3.1,0.1,3,3,3,3.4s0,6,0,6s0.3,3,3,3
			c2.6,0.1,2.9-2.2,3-2.6c0.1-0.8,0-4.6,0-4.6"/>
		<path id="XMLID_522_" class="st3" d="M-869.3,98.4c0.5,1.1,1.1,2.1,1.1,2.1c0,0.1,0.1,0.1,0.2,0.1s0.2,0,0.2-0.1
			c0,0,0.5-1,1.1-2.1c0.7-1.5,1.1-2.6,1.1-3.1c0-1.3-1-2.3-2.3-2.3c-1.3,0-2.3,1-2.3,2.3C-870.4,95.8-870,96.8-869.3,98.4z
			 M-868.1,94.3c0.6,0,1.1,0.5,1.1,1.1c0,0.5-0.7,2-1.1,2.8c-0.4-0.8-1.1-2.3-1.1-2.8C-869.1,94.9-868.6,94.3-868.1,94.3z"/>
	</g>
	<g id="XMLID_510_">
		<path id="XMLID_518_" class="st0" d="M-846.3,102.5h-4.1l-0.8,2.1h-2.6l4.1-9.9h2.7l4.1,9.9h-2.6L-846.3,102.5z M-847,100.6
			l-1.4-3.6l-1.3,3.6H-847z"/>
		<path id="XMLID_514_" class="st0" d="M-832.6,100.4c0.3,0.4,0.5,0.9,0.5,1.5c0,1-0.3,1.7-1,2.1c-0.6,0.5-1.5,0.7-2.7,0.7h-5.7v-10
			h5.5c1,0,1.9,0.2,2.4,0.7c0.6,0.5,0.9,1.1,0.9,1.9c0,0.5-0.1,0.9-0.3,1.3s-0.5,0.6-0.9,0.8C-833.4,99.6-833,100-832.6,100.4z
			 M-839.1,96.7v1.9h2.8c0.4,0,0.7-0.1,1-0.2c0.2-0.1,0.3-0.4,0.3-0.7c0-0.3-0.1-0.6-0.3-0.7c-0.2-0.2-0.5-0.3-0.9-0.3H-839.1z
			 M-835,102.4c0.3-0.2,0.4-0.4,0.4-0.8s-0.1-0.7-0.4-0.8c-0.3-0.2-0.6-0.3-1-0.3h-3v2.2h3C-835.6,102.7-835.3,102.6-835,102.4z"/>
		<path id="XMLID_511_" class="st0" d="M-828.1,104.3c-0.8-0.4-1.5-1-1.9-1.8c-0.5-0.8-0.7-1.7-0.7-2.8c0-1.1,0.2-2,0.7-2.8
			c0.5-0.8,1.1-1.4,2-1.8c0.8-0.4,1.7-0.6,2.6-0.6c0.8,0,1.7,0.2,2.4,0.5c0.8,0.3,1.4,0.7,1.9,1.3l-1.2,1.4
			c-0.4-0.3-0.9-0.6-1.4-0.8c-0.5-0.2-1-0.3-1.6-0.3c-0.6,0-1.1,0.1-1.6,0.4c-0.5,0.3-0.8,0.6-1.1,1.1s-0.4,1-0.4,1.7
			c0,0.6,0.1,1.2,0.4,1.7s0.6,0.8,1.1,1.1c0.5,0.3,1,0.4,1.6,0.4c0.5,0,1-0.1,1.5-0.3s1-0.5,1.4-0.8l1.2,1.4
			c-0.5,0.5-1.2,0.9-1.9,1.3c-0.8,0.3-1.6,0.5-2.4,0.5C-826.4,104.9-827.2,104.7-828.1,104.3z"/>
	</g>
	<g id="XMLID_448_">
		<g>
			<path id="XMLID_152_" class="st0" d="M-811.2,101.3h-2.1v3.4h-2.3v-9.9h4.8c0.7,0,1.4,0.1,1.9,0.2s1,0.4,1.3,0.7
				c0.3,0.3,0.5,0.6,0.6,1c0.1,0.4,0.2,0.8,0.2,1.2c0,0.7-0.2,1.3-0.5,1.8s-0.8,0.8-1.5,1.1l2.4,3.7h-2.8L-811.2,101.3z
				 M-813.3,99.3h2.6c0.5,0,0.9-0.1,1.2-0.3s0.4-0.5,0.4-1c0-0.4-0.1-0.7-0.4-0.9c-0.3-0.2-0.7-0.3-1.2-0.3h-2.6V99.3z"/>
			<path id="XMLID_149_" class="st0" d="M-797.8,101.8h-5.2c0.1,0.5,0.4,0.9,0.7,1.1c0.4,0.2,0.8,0.4,1.4,0.4c0.7,0,1.5-0.2,2.3-0.6
				l0.6,1.4c-0.4,0.3-0.9,0.5-1.5,0.6c-0.5,0.1-1.1,0.2-1.6,0.2c-0.8,0-1.6-0.2-2.2-0.5c-0.6-0.3-1.1-0.8-1.5-1.3
				c-0.4-0.6-0.5-1.3-0.5-2c0-0.8,0.2-1.4,0.5-2s0.8-1,1.4-1.4c0.6-0.3,1.3-0.5,2.1-0.5c0.7,0,1.3,0.1,1.8,0.4
				c0.5,0.3,1,0.7,1.3,1.2c0.3,0.5,0.5,1.1,0.5,1.8C-797.6,101-797.6,101.4-797.8,101.8z M-800.1,99.3c-0.3-0.3-0.7-0.4-1.1-0.4
				c-0.5,0-0.8,0.1-1.2,0.4c-0.3,0.3-0.5,0.6-0.6,1.2h3.4C-799.6,99.9-799.8,99.5-800.1,99.3z"/>
			<path id="XMLID_147_" class="st0" d="M-794.2,104.4c-0.6-0.3-1.1-0.8-1.5-1.4c-0.4-0.6-0.5-1.3-0.5-2c0-0.8,0.2-1.4,0.5-2
				s0.8-1,1.5-1.4c0.6-0.3,1.3-0.5,2.2-0.5c1.2,0,2.3,0.3,3.1,1l-0.9,1.4c-0.3-0.2-0.6-0.4-0.9-0.5c-0.4,0-0.8,0-1.1,0
				c-0.7,0-1.2,0.2-1.6,0.6c-0.4,0.4-0.6,0.9-0.6,1.5s0.2,1.1,0.6,1.5c0.4,0.4,0.9,0.5,1.6,0.5c0.4,0,0.7-0.1,1.1-0.2
				c0.4-0.1,0.7-0.3,0.9-0.5l0.9,1.4c-0.5,0.3-1,0.6-1.5,0.8c-0.5,0.2-1.1,0.3-1.7,0.3C-792.9,104.9-793.6,104.7-794.2,104.4z"/>
			<path id="XMLID_145_" class="st0" d="M-780,97.4v7.2h-1.9l-0.1-0.8c-0.4,0.3-0.8,0.6-1.2,0.8c-0.4,0.2-0.9,0.3-1.5,0.3
				c-0.9,0-1.6-0.3-2.1-0.8s-0.7-1.3-0.7-2.3v-4.3h2.2v4c0,1.1,0.5,1.7,1.4,1.7c0.6,0,1.2-0.2,1.7-0.7v-4.9h2.2V97.4z"/>
			<path id="XMLID_143_" class="st0" d="M-773.4,97.3c0.2,0,0.4,0.1,0.5,0.1l-0.3,1.8c-0.3-0.1-0.6-0.2-0.9-0.2
				c-0.6,0-1.2,0.2-1.5,0.7c-0.1,0.1-0.2,0.3-0.3,0.4v4.5h-2.2v-7.2h1.8l0.2,0.9c0.1-0.1,0.1-0.2,0.3-0.3c0.5-0.5,1.1-0.8,1.9-0.8
				C-773.8,97.3-773.6,97.3-773.4,97.3z"/>
			<path id="XMLID_141_" class="st0" d="M-770.5,104.6c-0.6-0.2-1.1-0.4-1.5-0.7l0.8-1.4c0.4,0.2,0.8,0.4,1.3,0.5s0.9,0.2,1.3,0.2
				c0.4,0,0.7-0.1,0.9-0.2s0.3-0.3,0.3-0.4c0-0.2-0.1-0.3-0.3-0.4c-0.2-0.1-0.5-0.2-1-0.3c-0.2,0-0.4-0.1-0.6-0.2
				c-0.8-0.2-1.4-0.5-1.8-0.8c-0.4-0.3-0.6-0.8-0.6-1.5c0-0.7,0.3-1.3,1-1.7c0.6-0.4,1.5-0.6,2.5-0.6c0.6,0,1.1,0.1,1.7,0.2
				c0.5,0.1,1,0.3,1.5,0.6l-0.7,1.4c-0.3-0.2-0.7-0.3-1.1-0.4s-0.8-0.1-1.2-0.1c-0.4,0-0.7,0-0.9,0.1s-0.3,0.2-0.3,0.4
				c0,0.2,0.1,0.4,0.3,0.5c0.2,0.1,0.6,0.2,1.3,0.4c0.5,0.1,1,0.3,1.4,0.4c0.4,0.2,0.7,0.4,1,0.7c0.3,0.3,0.4,0.7,0.4,1.2
				c0,0.7-0.3,1.3-1,1.7c-0.6,0.4-1.5,0.6-2.6,0.6C-769.2,104.9-769.9,104.8-770.5,104.6z"/>
			<path id="XMLID_138_" class="st0" d="M-761.9,104.4c-0.6-0.3-1.1-0.8-1.4-1.3c-0.3-0.6-0.5-1.3-0.5-2c0-0.8,0.2-1.4,0.5-2
				s0.8-1,1.4-1.3c0.6-0.3,1.3-0.5,2.2-0.5c0.8,0,1.6,0.2,2.2,0.5c0.6,0.3,1.1,0.8,1.4,1.3c0.3,0.6,0.5,1.3,0.5,2
				c0,0.8-0.2,1.4-0.5,2c-0.3,0.6-0.8,1-1.4,1.3c-0.6,0.3-1.3,0.5-2.2,0.5C-760.6,104.9-761.3,104.7-761.9,104.4z M-758.3,102.6
				c0.3-0.3,0.5-0.9,0.5-1.6s-0.2-1.2-0.5-1.6c-0.3-0.3-0.8-0.5-1.4-0.5c-0.6,0-1.1,0.2-1.4,0.5c-0.3,0.3-0.5,0.9-0.5,1.6
				s0.2,1.2,0.5,1.6c0.3,0.3,0.8,0.5,1.4,0.5C-759.1,103.1-758.7,102.9-758.3,102.6z"/>
			<path id="XMLID_136_" class="st0" d="M-752.9,104.6c-0.6-0.2-1.1-0.4-1.5-0.7l0.8-1.4c0.4,0.2,0.8,0.4,1.3,0.5s0.9,0.2,1.3,0.2
				s0.7-0.1,0.9-0.2c0.2-0.1,0.3-0.3,0.3-0.4c0-0.2-0.1-0.3-0.3-0.4c-0.2-0.1-0.5-0.2-1-0.3c-0.2,0-0.4-0.1-0.6-0.2
				c-0.8-0.2-1.4-0.5-1.8-0.8c-0.4-0.3-0.6-0.8-0.6-1.5c0-0.7,0.3-1.3,1-1.7c0.6-0.4,1.5-0.6,2.5-0.6c0.6,0,1.1,0.1,1.7,0.2
				c0.5,0.1,1,0.3,1.5,0.6l-0.7,1.4c-0.3-0.2-0.7-0.3-1.1-0.4c-0.4-0.1-0.8-0.1-1.2-0.1c-0.4,0-0.7,0-0.9,0.1s-0.3,0.2-0.3,0.4
				c0,0.2,0.1,0.4,0.3,0.5c0.2,0.1,0.6,0.2,1.3,0.4c0.5,0.1,1,0.3,1.4,0.4c0.4,0.2,0.7,0.4,1,0.7c0.3,0.3,0.4,0.7,0.4,1.2
				c0,0.7-0.3,1.3-1,1.7c-0.6,0.4-1.5,0.6-2.6,0.6C-751.7,104.9-752.3,104.8-752.9,104.6z"/>
		</g>
	</g>
</g>
<ellipse id="XMLID_1_" class="st3" cx="-880" cy="105" rx="2" ry="0.8"/>
</svg>
